<?xml version="1.0" standalone="no"?>
<!DOCTYPE svg PUBLIC "-//W3C//DTD SVG 20010904//EN"
 "http://www.w3.org/TR/2001/REC-SVG-20010904/DTD/svg10.dtd">
<svg version="1.0" xmlns="http://www.w3.org/2000/svg"
 width="240.000000pt" height="240.000000pt" viewBox="0 0 240.000000 240.000000"
 preserveAspectRatio="xMidYMid meet">

<g transform="translate(0.000000,240.000000) scale(0.100000,-0.100000)"
fill="#000000" stroke="none">
<path d="M303 2387 c3 -8 13 -53 23 -100 l18 -87 856 0 856 0 21 100 20 100
-899 0 c-745 0 -899 -2 -895 -13z"/>
<path d="M144 1968 c4 -18 12 -63 18 -100 l12 -68 1026 0 1026 0 13 78 c7 42
15 87 18 100 l5 22 -1062 0 -1062 0 6 -32z"/>
<path d="M4 1568 c8 -46 46 -343 46 -357 0 -7 34 -11 101 -11 l102 0 -6 38
c-3 20 -9 65 -13 100 l-7 62 973 0 973 0 -7 -50 c-3 -27 -9 -72 -12 -100 l-7
-50 100 0 100 0 22 178 c12 97 25 187 28 200 l5 22 -1201 0 -1202 0 5 -32z"/>
<path d="M5 978 c6 -25 195 -970 195 -975 0 -2 450 -3 1000 -3 550 0 1000 1
1000 3 0 5 189 950 195 975 l5 22 -1200 0 -1200 0 5 -22z"/>
</g>
</svg>
