<svg id="svg" version="1.1" xmlns="http://www.w3.org/2000/svg" xmlns:xlink="http://www.w3.org/1999/xlink" width="400" height="400" viewBox="0, 0, 400,400"><g id="svgg"><path id="path0" d="M228.400 0.577 C 228.400 0.939,228.101 1.097,227.600 1.000 C 227.160 0.915,226.800 1.000,226.800 1.188 C 226.800 1.376,226.256 1.445,225.592 1.340 C 224.927 1.235,224.408 1.296,224.439 1.475 C 224.657 2.749,224.352 3.017,222.844 2.873 C 221.067 2.703,219.600 3.332,219.600 4.263 C 219.600 4.782,219.490 4.807,219.000 4.400 C 218.577 4.049,218.400 4.036,218.400 4.357 C 218.400 4.642,217.954 4.733,217.200 4.600 C 216.481 4.473,216.000 4.561,216.000 4.818 C 216.000 5.054,216.180 5.136,216.400 5.000 C 216.620 4.864,216.800 4.943,216.800 5.176 C 216.800 5.409,216.609 5.600,216.376 5.600 C 216.143 5.600,216.037 5.737,216.140 5.904 C 216.244 6.070,215.588 6.205,214.684 6.204 C 213.378 6.201,212.994 6.365,212.820 7.000 C 212.662 7.573,212.260 7.800,211.400 7.800 C 210.740 7.800,210.065 7.980,209.900 8.200 C 209.712 8.451,209.453 8.376,209.206 8.000 C 208.831 7.429,208.613 7.741,208.786 8.600 C 208.830 8.820,208.749 8.882,208.605 8.738 C 208.461 8.595,207.874 8.720,207.300 9.018 C 206.727 9.316,206.108 9.467,205.926 9.354 C 205.543 9.117,204.400 10.152,204.400 10.736 C 204.400 10.952,204.085 11.081,203.700 11.023 C 202.880 10.898,201.200 11.586,201.200 12.046 C 201.200 12.408,198.530 13.005,197.551 12.862 C 197.194 12.810,196.813 13.109,196.703 13.527 C 196.488 14.349,194.766 14.873,193.945 14.366 C 193.259 13.942,192.800 14.285,192.800 15.224 C 192.800 15.752,192.513 16.010,191.900 16.032 C 189.325 16.125,188.665 16.296,188.148 17.004 C 187.802 17.477,187.084 17.787,186.296 17.802 C 185.439 17.819,184.875 18.089,184.605 18.614 C 184.307 19.192,183.741 19.418,182.465 19.470 C 181.511 19.508,180.417 19.823,180.034 20.170 C 179.650 20.516,179.036 20.800,178.669 20.800 C 178.301 20.800,178.000 20.974,178.000 21.187 C 178.000 21.401,177.743 21.476,177.430 21.356 C 177.099 21.229,176.591 21.547,176.220 22.113 C 175.770 22.800,175.279 23.055,174.555 22.975 C 173.991 22.913,173.634 22.967,173.761 23.095 C 174.362 23.696,172.941 24.400,171.127 24.400 C 169.664 24.400,169.226 24.529,169.435 24.900 C 169.655 25.290,169.604 25.295,169.200 24.921 C 168.791 24.543,168.522 24.646,167.923 25.407 C 167.324 26.168,166.917 26.323,166.001 26.140 C 165.009 25.942,164.802 26.052,164.592 26.891 C 164.373 27.762,164.167 27.857,162.792 27.719 C 161.405 27.581,161.256 27.652,161.397 28.382 C 161.553 29.195,161.333 29.321,159.800 29.297 C 159.360 29.291,158.868 29.491,158.706 29.743 C 158.487 30.084,158.411 30.083,158.406 29.737 C 158.403 29.474,158.058 29.364,157.604 29.483 C 157.167 29.597,156.902 29.841,157.016 30.025 C 157.340 30.550,155.796 31.200,154.226 31.200 C 153.040 31.200,152.800 31.343,152.800 32.047 C 152.800 32.696,152.614 32.845,152.000 32.684 C 151.560 32.569,151.200 32.649,151.200 32.861 C 151.200 33.073,151.032 33.144,150.828 33.017 C 150.623 32.891,150.340 32.973,150.200 33.200 C 150.060 33.427,149.777 33.509,149.572 33.383 C 149.368 33.256,149.200 33.433,149.200 33.776 C 149.200 34.250,148.761 34.400,147.371 34.400 C 145.667 34.400,144.400 35.036,144.400 35.892 C 144.400 36.085,143.675 36.223,142.788 36.200 C 141.473 36.165,141.137 36.310,140.968 36.985 C 140.804 37.639,140.472 37.798,139.378 37.747 C 138.618 37.711,137.895 37.846,137.771 38.048 C 137.646 38.249,137.377 38.310,137.173 38.183 C 136.969 38.057,136.337 38.459,135.768 39.077 C 135.200 39.695,134.851 39.975,134.991 39.700 C 135.397 38.908,134.241 39.116,133.285 40.006 C 132.809 40.450,131.598 40.925,130.593 41.063 C 129.438 41.221,128.563 41.603,128.215 42.100 C 127.912 42.533,127.490 42.779,127.277 42.648 C 127.065 42.516,126.668 42.677,126.396 43.004 C 126.124 43.332,125.699 43.597,125.451 43.594 C 125.203 43.591,125.270 43.413,125.600 43.200 C 126.085 42.886,126.028 42.811,125.300 42.806 C 124.629 42.802,124.400 43.031,124.400 43.707 C 124.400 44.495,124.210 44.605,122.952 44.546 C 121.832 44.493,121.460 44.650,121.306 45.239 C 121.196 45.657,120.768 46.000,120.353 46.000 C 119.175 46.000,119.037 46.038,118.423 46.534 C 117.976 46.895,117.914 46.888,118.147 46.500 C 118.676 45.619,117.596 45.963,116.660 46.973 C 116.038 47.645,115.415 47.909,114.654 47.826 C 113.853 47.738,113.380 47.963,112.931 48.649 C 112.591 49.168,112.167 49.503,111.990 49.394 C 111.334 48.988,109.512 49.993,109.755 50.626 C 109.885 50.965,109.825 51.139,109.623 51.014 C 109.421 50.889,109.142 50.970,109.003 51.195 C 108.833 51.471,108.501 51.468,107.976 51.187 C 107.153 50.747,105.600 51.279,105.600 52.002 C 105.600 52.207,105.330 52.271,105.000 52.145 C 104.670 52.018,104.400 52.117,104.400 52.365 C 104.400 52.627,103.982 52.740,103.400 52.634 C 102.850 52.535,102.400 52.632,102.400 52.850 C 102.400 53.069,102.220 53.136,102.000 53.000 C 101.780 52.864,101.600 52.990,101.600 53.280 C 101.600 54.027,100.363 54.706,99.300 54.543 C 98.805 54.467,98.400 54.590,98.400 54.817 C 98.400 55.085,98.106 55.071,97.552 54.774 C 96.956 54.455,96.784 54.451,96.975 54.760 C 97.130 55.011,96.969 55.200,96.600 55.200 C 96.244 55.200,96.064 55.380,96.200 55.600 C 96.419 55.955,96.143 56.073,95.345 55.966 C 95.204 55.947,94.979 56.094,94.845 56.293 C 94.460 56.863,91.495 57.896,90.494 57.811 C 89.763 57.748,89.636 57.884,89.837 58.517 C 90.001 59.034,89.935 59.207,89.643 59.026 C 89.399 58.876,89.200 58.908,89.200 59.097 C 89.200 59.287,88.480 59.411,87.600 59.373 C 86.720 59.335,86.000 59.482,86.000 59.701 C 86.000 59.919,85.695 59.851,85.323 59.549 C 84.863 59.176,84.743 59.160,84.947 59.500 C 85.112 59.775,85.057 60.000,84.824 60.000 C 84.591 60.000,84.445 60.225,84.500 60.500 C 84.562 60.812,84.162 60.992,83.435 60.979 C 82.743 60.967,81.857 61.342,81.250 61.904 C 80.667 62.445,79.921 62.768,79.508 62.660 C 78.690 62.446,77.465 63.472,77.727 64.152 C 77.847 64.462,77.117 64.559,75.350 64.466 C 72.989 64.342,72.800 64.394,72.800 65.166 C 72.800 65.948,72.478 66.068,70.592 65.992 C 70.001 65.968,69.317 67.018,69.744 67.294 C 70.053 67.493,70.006 67.600,69.600 67.624 C 69.270 67.645,68.640 67.747,68.200 67.851 C 67.760 67.956,66.680 68.061,65.800 68.085 C 64.920 68.109,64.415 68.201,64.678 68.290 C 65.609 68.605,64.756 69.443,63.586 69.362 C 62.933 69.317,62.296 69.445,62.171 69.646 C 62.047 69.848,61.777 69.909,61.572 69.783 C 61.368 69.656,61.200 69.833,61.200 70.176 C 61.200 70.519,61.020 70.823,60.800 70.850 C 60.580 70.877,60.085 70.938,59.700 70.985 C 58.573 71.121,57.588 71.657,57.809 72.014 C 58.139 72.548,57.110 72.972,55.767 72.856 C 54.932 72.785,54.139 73.062,53.361 73.699 C 52.632 74.296,51.783 74.611,51.079 74.547 C 50.325 74.478,49.876 74.667,49.708 75.122 C 49.339 76.123,48.909 76.299,47.030 76.218 C 45.507 76.151,45.278 76.264,44.814 77.312 C 44.523 77.970,44.182 78.295,44.034 78.055 C 43.668 77.463,42.000 77.967,42.000 78.670 C 42.000 78.988,41.820 79.136,41.600 79.000 C 41.380 78.864,41.200 78.921,41.200 79.127 C 41.200 79.334,40.667 79.457,40.016 79.401 C 38.748 79.293,37.322 80.426,37.784 81.175 C 38.075 81.644,37.496 81.762,37.056 81.323 C 36.547 80.814,35.200 80.799,35.194 81.303 C 35.189 81.690,35.117 81.688,34.865 81.291 C 34.614 80.896,34.366 80.940,33.747 81.491 C 32.797 82.339,32.756 83.856,33.650 85.117 L 34.300 86.035 35.250 84.908 C 35.909 84.126,36.525 83.806,37.260 83.863 C 38.014 83.922,38.379 83.722,38.523 83.173 C 38.716 82.434,39.528 82.247,42.500 82.260 C 42.885 82.262,43.200 82.016,43.200 81.712 C 43.200 80.960,45.658 79.950,46.264 80.453 C 46.565 80.703,46.820 80.691,46.988 80.419 C 47.131 80.189,47.125 80.000,46.975 80.000 C 46.825 80.000,46.909 79.750,47.163 79.445 C 47.488 79.053,48.341 78.927,50.053 79.017 C 52.437 79.142,52.479 79.126,52.297 78.172 C 52.192 77.623,52.304 77.187,52.555 77.169 C 54.376 77.044,55.708 76.498,55.402 76.003 C 55.265 75.781,55.388 75.582,55.676 75.561 C 57.743 75.405,58.234 75.447,58.494 75.800 C 58.750 76.149,58.983 75.161,58.847 74.300 C 58.797 73.984,59.866 73.867,61.700 73.988 C 62.465 74.038,62.800 73.868,62.800 73.430 C 62.800 73.084,63.070 72.800,63.400 72.800 C 63.730 72.800,64.000 72.645,64.000 72.455 C 64.000 72.265,64.425 72.157,64.943 72.214 C 66.029 72.333,66.566 72.051,66.879 71.199 C 67.049 70.735,67.706 70.615,69.750 70.673 C 72.130 70.741,72.400 70.670,72.400 69.975 C 72.400 69.549,72.190 69.200,71.933 69.200 C 71.332 69.200,71.915 68.604,72.533 68.587 C 72.790 68.579,73.132 68.759,73.294 68.987 C 73.477 69.245,73.590 69.194,73.594 68.851 C 73.599 68.425,73.726 68.407,74.161 68.768 C 74.609 69.139,74.897 68.987,75.591 68.013 C 76.248 67.090,76.616 66.881,77.102 67.153 C 77.817 67.553,78.461 67.084,78.944 65.811 C 79.174 65.205,79.319 65.145,79.572 65.554 C 79.791 65.909,79.987 65.944,80.163 65.660 C 80.323 65.401,80.766 65.361,81.302 65.559 C 81.984 65.812,82.423 65.638,83.285 64.777 C 84.017 64.044,84.732 63.707,85.396 63.780 C 85.948 63.840,86.400 63.724,86.400 63.521 C 86.400 63.319,86.608 63.281,86.862 63.438 C 87.140 63.610,87.215 63.548,87.051 63.282 C 86.900 63.039,87.098 62.669,87.489 62.460 C 88.502 61.918,90.850 61.595,90.579 62.035 C 90.454 62.236,90.813 62.400,91.376 62.400 C 92.121 62.400,92.400 62.190,92.400 61.627 C 92.400 60.826,93.689 60.161,94.396 60.598 C 94.618 60.735,94.800 60.646,94.800 60.400 C 94.800 60.154,95.008 60.081,95.262 60.238 C 95.530 60.404,95.616 60.349,95.466 60.107 C 95.138 59.577,96.228 58.647,96.779 58.987 C 97.007 59.128,97.690 58.743,98.297 58.133 C 99.450 56.972,100.150 56.773,101.268 57.287 C 101.679 57.476,102.013 57.403,102.136 57.097 C 102.295 56.703,102.343 56.704,102.368 57.100 C 102.386 57.375,102.760 57.600,103.200 57.600 C 104.099 57.600,104.337 56.211,103.500 55.852 C 103.225 55.734,103.492 55.706,104.093 55.791 C 104.695 55.876,105.292 55.774,105.421 55.566 C 105.550 55.357,105.835 55.298,106.055 55.434 C 106.274 55.569,106.553 55.302,106.674 54.840 C 106.869 54.092,107.526 53.785,108.541 53.966 C 108.729 54.000,109.217 53.641,109.627 53.169 C 110.144 52.573,110.956 52.264,112.284 52.160 C 113.336 52.077,114.258 51.827,114.332 51.605 C 114.406 51.382,114.642 51.200,114.857 51.200 C 115.072 51.200,115.119 51.408,114.962 51.662 C 114.781 51.955,114.853 52.015,115.158 51.826 C 115.529 51.597,115.520 51.384,115.119 50.897 C 114.660 50.338,114.748 50.294,115.885 50.519 C 116.761 50.693,117.355 50.588,117.756 50.187 C 118.079 49.864,118.546 49.600,118.795 49.600 C 119.044 49.600,119.148 49.439,119.026 49.242 C 118.904 49.045,119.568 48.807,120.502 48.714 C 121.436 48.621,122.260 48.692,122.333 48.873 C 122.693 49.756,124.089 49.177,123.906 48.220 C 123.709 47.188,124.362 46.657,125.359 47.040 C 125.666 47.157,126.364 46.773,126.909 46.185 C 127.477 45.572,128.007 45.288,128.151 45.520 C 128.555 46.174,129.867 45.611,130.335 44.583 C 130.618 43.962,131.084 43.648,131.684 43.674 C 134.053 43.776,134.881 43.576,135.069 42.858 C 135.205 42.339,135.567 42.150,136.277 42.228 C 137.580 42.371,138.400 42.051,138.400 41.400 C 138.400 40.608,139.464 40.374,141.894 40.633 L 144.114 40.870 143.884 39.535 C 143.758 38.801,143.744 38.416,143.854 38.680 C 143.994 39.016,144.344 39.049,145.027 38.790 C 145.632 38.560,146.000 38.563,146.000 38.797 C 146.000 39.005,146.248 39.080,146.552 38.963 C 146.855 38.847,147.080 38.450,147.052 38.082 C 147.016 37.624,147.317 37.405,148.000 37.392 C 148.550 37.382,149.225 37.234,149.500 37.063 C 149.775 36.892,150.208 36.881,150.462 37.038 C 150.716 37.195,150.818 37.152,150.688 36.943 C 150.262 36.253,151.070 35.529,152.369 35.439 C 153.071 35.391,153.736 35.497,153.847 35.675 C 154.453 36.657,156.088 35.983,155.918 34.821 C 155.823 34.173,155.889 33.731,156.066 33.841 C 156.488 34.102,159.182 33.591,159.139 33.258 C 159.021 32.347,159.360 32.107,160.700 32.151 C 162.130 32.198,162.196 32.144,162.110 31.000 C 162.061 30.340,162.121 30.025,162.243 30.300 C 162.579 31.051,164.832 30.910,165.424 30.100 C 165.705 29.715,166.175 29.392,166.468 29.382 C 166.760 29.372,166.942 29.102,166.871 28.782 C 166.773 28.334,166.853 28.309,167.222 28.671 C 167.517 28.960,168.028 29.020,168.551 28.826 C 169.018 28.653,169.692 28.556,170.048 28.612 C 170.433 28.673,170.677 28.454,170.648 28.074 C 170.595 27.371,173.689 26.588,173.933 27.242 C 174.287 28.192,176.094 27.602,175.902 26.600 C 175.743 25.769,175.866 25.600,176.627 25.600 C 177.531 25.600,178.800 24.666,178.800 24.001 C 178.800 23.812,179.335 23.726,179.989 23.809 C 180.643 23.891,181.295 23.769,181.439 23.537 C 181.611 23.259,181.817 23.300,182.044 23.657 C 182.282 24.033,182.390 23.847,182.394 23.050 C 182.399 22.013,182.508 21.920,183.500 22.106 C 184.751 22.340,186.084 21.957,186.009 21.384 C 185.982 21.173,186.733 20.854,187.680 20.675 C 188.626 20.497,189.670 20.047,190.000 19.675 C 190.330 19.304,191.213 18.966,191.962 18.924 C 192.711 18.882,193.473 18.612,193.656 18.324 C 193.905 17.930,193.989 17.974,193.994 18.500 C 193.998 18.978,194.317 19.200,195.000 19.200 C 196.078 19.200,196.456 17.870,195.500 17.444 C 195.225 17.321,195.540 17.235,196.200 17.253 C 198.143 17.305,198.400 17.231,198.400 16.618 C 198.400 15.986,200.856 15.340,201.574 15.784 C 201.821 15.937,202.000 15.711,202.000 15.247 C 202.000 14.268,202.598 13.866,204.187 13.777 C 204.854 13.740,205.445 13.662,205.500 13.604 C 205.555 13.547,205.765 13.478,205.967 13.450 C 206.168 13.422,206.483 13.236,206.667 13.036 C 206.863 12.822,206.753 12.793,206.400 12.966 C 206.070 13.127,206.146 12.979,206.568 12.636 C 207.017 12.271,207.778 12.090,208.401 12.200 C 209.185 12.338,209.695 12.125,210.331 11.394 C 210.888 10.752,211.616 10.400,212.383 10.400 C 213.129 10.400,213.719 10.125,213.967 9.662 C 214.240 9.151,214.862 8.903,215.981 8.859 C 218.343 8.765,218.782 8.694,218.618 8.429 C 218.537 8.298,218.725 7.844,219.035 7.419 C 219.346 6.995,219.600 6.845,219.600 7.086 C 219.600 7.340,219.980 7.432,220.500 7.305 C 221.647 7.024,222.448 6.402,222.194 5.990 C 222.085 5.814,222.447 5.720,222.998 5.780 C 223.549 5.840,224.000 5.752,224.000 5.582 C 224.000 5.413,224.344 5.365,224.764 5.475 C 225.276 5.609,225.589 5.432,225.717 4.937 C 225.872 4.337,225.916 4.367,225.954 5.100 C 225.986 5.735,226.249 6.000,226.845 6.000 C 227.545 6.000,227.662 5.806,227.525 4.871 C 227.379 3.874,227.467 3.762,228.280 3.917 C 228.796 4.016,229.200 3.897,229.200 3.647 C 229.200 3.401,229.605 3.197,230.100 3.194 C 230.828 3.189,230.885 3.114,230.400 2.800 C 229.982 2.530,229.952 2.395,230.300 2.356 C 231.395 2.233,231.544 2.189,231.830 1.903 C 231.993 1.740,232.403 1.830,232.740 2.103 C 233.244 2.511,233.292 2.499,233.011 2.032 C 232.754 1.606,232.835 1.528,233.334 1.719 C 234.037 1.989,234.158 1.677,233.757 0.633 C 233.420 -0.246,228.400 -0.298,228.400 0.577 M227.600 41.800 C 227.600 42.527,227.386 42.800,226.816 42.800 C 226.384 42.800,225.658 43.201,225.201 43.691 C 224.680 44.250,223.891 44.586,223.085 44.591 C 222.378 44.596,221.800 44.707,221.800 44.839 C 221.800 45.522,220.569 46.401,219.649 46.374 C 218.201 46.331,217.575 46.515,216.303 47.360 C 215.700 47.760,214.972 47.998,214.686 47.888 C 214.400 47.779,213.825 47.939,213.407 48.244 C 212.989 48.550,212.784 48.800,212.952 48.800 C 213.120 48.800,212.958 49.099,212.592 49.465 C 212.227 49.831,211.809 49.966,211.664 49.765 C 210.937 48.759,207.485 49.086,207.687 50.142 C 207.794 50.702,207.773 51.131,207.641 51.096 C 206.972 50.916,204.779 51.642,204.985 51.975 C 205.278 52.451,203.988 53.159,203.287 52.908 C 203.004 52.807,202.527 52.929,202.225 53.179 C 201.812 53.522,201.627 53.507,201.470 53.117 C 201.356 52.833,201.249 53.005,201.232 53.500 C 201.214 53.995,200.975 54.425,200.700 54.455 C 200.425 54.486,199.660 54.554,199.000 54.608 C 198.340 54.661,197.575 54.727,197.300 54.753 C 197.025 54.779,196.800 54.991,196.800 55.224 C 196.800 55.457,197.008 55.519,197.262 55.362 C 197.550 55.184,197.615 55.252,197.434 55.545 C 197.275 55.802,196.977 55.909,196.772 55.783 C 196.568 55.656,196.400 55.720,196.400 55.924 C 196.400 56.129,196.085 56.295,195.700 56.293 C 193.437 56.284,192.629 56.431,193.142 56.756 C 193.548 57.013,193.361 57.261,192.394 57.743 C 191.684 58.097,190.937 58.285,190.734 58.159 C 190.531 58.034,190.103 58.149,189.782 58.415 C 189.313 58.804,189.200 58.772,189.200 58.249 C 189.200 57.855,188.868 57.600,188.353 57.600 C 187.658 57.600,187.542 57.785,187.705 58.637 C 187.880 59.553,187.791 59.653,186.952 59.493 C 186.428 59.393,186.000 59.466,186.000 59.655 C 186.000 59.845,185.865 59.979,185.700 59.953 C 185.025 59.846,184.403 60.018,184.447 60.300 C 184.612 61.342,184.358 61.564,183.414 61.205 C 182.786 60.967,182.341 60.973,182.187 61.222 C 182.054 61.437,181.773 61.507,181.562 61.377 C 181.352 61.247,181.213 61.289,181.254 61.470 C 181.441 62.312,180.700 63.021,179.691 62.966 C 179.091 62.934,178.375 63.085,178.100 63.302 C 177.762 63.570,177.600 63.552,177.600 63.249 C 177.600 63.002,177.240 62.800,176.800 62.800 C 176.267 62.800,176.000 63.067,176.000 63.600 C 176.000 64.106,175.733 64.400,175.275 64.400 C 174.877 64.400,174.164 64.760,173.692 65.200 C 173.220 65.640,172.365 66.000,171.793 66.000 C 171.067 66.000,170.844 66.151,171.053 66.500 C 171.228 66.791,171.039 66.750,170.600 66.400 C 170.161 66.050,169.972 66.009,170.147 66.300 C 170.341 66.624,170.192 66.811,169.724 66.832 C 169.304 66.850,169.210 66.948,169.500 67.065 C 170.643 67.526,169.874 68.011,168.200 67.885 C 166.885 67.786,166.400 67.896,166.400 68.292 C 166.400 68.591,166.175 68.806,165.900 68.770 C 164.682 68.612,164.204 68.858,165.000 69.234 C 165.685 69.557,165.642 69.590,164.700 69.461 C 164.095 69.378,163.600 69.460,163.600 69.643 C 163.600 69.826,163.325 69.869,162.988 69.740 C 162.632 69.604,162.060 69.870,161.620 70.376 C 160.840 71.276,157.600 71.929,157.600 71.186 C 157.600 70.974,157.220 70.800,156.755 70.800 C 156.053 70.800,155.938 70.994,156.076 71.938 C 156.229 72.978,156.147 73.066,155.140 72.948 C 154.095 72.827,152.800 73.635,152.800 74.410 C 152.800 74.603,152.256 74.693,151.591 74.609 C 150.653 74.490,150.238 74.675,149.743 75.431 C 149.283 76.133,148.789 76.381,147.976 76.319 C 147.328 76.270,146.456 76.567,145.930 77.017 C 145.199 77.641,145.125 77.656,145.563 77.091 C 146.044 76.471,146.030 76.414,145.457 76.634 C 145.095 76.772,144.800 77.046,144.800 77.243 C 144.800 77.439,144.480 77.600,144.089 77.600 C 143.698 77.600,143.002 77.864,142.542 78.186 C 142.081 78.508,141.563 78.643,141.389 78.486 C 141.215 78.329,141.180 78.500,141.311 78.867 C 141.506 79.412,141.317 79.514,140.275 79.423 C 139.574 79.362,138.685 79.474,138.300 79.670 C 137.854 79.898,137.600 79.878,137.600 79.614 C 137.600 79.386,137.227 79.200,136.771 79.200 C 136.103 79.200,135.968 79.413,136.071 80.300 C 136.187 81.287,136.078 81.397,135.008 81.374 C 134.295 81.359,133.471 81.693,132.958 82.205 C 132.336 82.828,131.705 83.031,130.651 82.948 C 129.370 82.847,129.200 82.942,129.200 83.755 C 129.200 84.627,129.075 84.669,126.800 84.550 C 124.528 84.430,124.400 84.473,124.400 85.341 C 124.400 86.153,124.218 86.251,122.809 86.198 C 121.528 86.150,121.303 86.242,121.658 86.669 C 121.990 87.070,121.951 87.200,121.498 87.200 C 121.168 87.200,120.674 87.470,120.401 87.799 C 120.124 88.133,119.495 88.324,118.981 88.231 C 118.273 88.102,118.089 88.226,118.193 88.761 C 118.304 89.341,118.049 89.449,116.681 89.398 C 115.474 89.353,114.818 89.562,114.218 90.184 C 113.768 90.650,113.130 91.014,112.800 90.992 C 112.470 90.970,111.795 91.093,111.300 91.266 C 110.740 91.462,110.400 91.422,110.400 91.162 C 110.400 90.931,110.131 91.012,109.801 91.342 C 109.472 91.671,109.308 92.215,109.436 92.550 C 109.618 93.025,109.440 93.118,108.626 92.970 C 108.052 92.866,107.226 92.972,106.791 93.205 C 106.252 93.493,106.000 93.496,106.000 93.214 C 106.000 92.986,105.640 92.800,105.200 92.800 C 104.622 92.800,104.400 93.067,104.400 93.763 C 104.400 94.529,104.237 94.682,103.598 94.515 C 103.157 94.400,102.527 94.529,102.198 94.802 C 101.717 95.201,101.592 95.190,101.560 94.749 C 101.538 94.447,101.391 94.650,101.233 95.200 C 100.980 96.079,100.750 96.188,99.327 96.099 C 97.841 96.006,97.718 96.074,97.813 96.942 C 97.896 97.691,97.739 97.873,97.059 97.818 C 96.586 97.780,95.885 97.902,95.500 98.089 C 95.051 98.307,94.800 98.270,94.800 97.986 C 94.800 97.701,94.591 97.732,94.214 98.071 C 92.755 99.387,92.366 99.626,92.029 99.418 C 91.506 99.095,89.600 99.897,89.600 100.439 C 89.600 100.758,89.813 100.738,90.300 100.371 C 90.961 99.873,90.962 99.885,90.320 100.587 C 89.864 101.087,89.146 101.313,88.138 101.275 C 87.312 101.244,86.496 101.439,86.324 101.709 C 86.106 102.052,86.010 101.989,86.006 101.500 C 85.996 100.303,84.473 100.633,84.327 101.864 C 84.208 102.860,83.761 103.147,82.100 103.290 C 81.825 103.314,81.600 103.573,81.600 103.867 C 81.600 104.223,81.065 104.400,79.990 104.400 C 78.689 104.400,78.315 104.572,78.038 105.300 C 77.753 106.051,77.419 106.190,76.020 106.140 C 74.912 106.100,74.272 106.269,74.130 106.638 C 74.012 106.944,73.755 107.096,73.558 106.974 C 73.361 106.852,73.200 107.013,73.200 107.331 C 73.200 107.668,72.699 107.983,72.000 108.085 C 71.340 108.182,70.800 108.081,70.800 107.861 C 70.800 107.640,70.463 107.807,70.051 108.230 C 69.639 108.654,69.399 109.166,69.517 109.368 C 69.635 109.570,69.432 109.621,69.066 109.481 C 68.670 109.329,68.398 109.423,68.394 109.713 C 68.390 110.025,68.240 109.985,67.976 109.600 C 67.626 109.089,67.466 109.142,66.898 109.954 C 66.154 111.018,65.873 112.126,66.435 111.778 C 66.636 111.654,66.800 111.698,66.800 111.876 C 66.800 112.054,67.835 112.181,69.100 112.157 C 70.682 112.127,71.366 111.962,71.290 111.627 C 71.230 111.359,71.352 111.247,71.562 111.377 C 71.773 111.507,72.058 111.430,72.196 111.207 C 72.334 110.983,72.910 110.800,73.477 110.800 C 74.043 110.800,74.826 110.431,75.217 109.980 C 75.841 109.261,77.201 108.750,78.662 108.687 C 78.916 108.676,79.032 108.427,78.919 108.133 C 78.799 107.820,78.990 107.600,79.381 107.600 C 79.747 107.600,79.964 107.465,79.862 107.300 C 79.760 107.135,80.477 107.015,81.455 107.034 C 82.658 107.057,83.344 106.871,83.574 106.460 C 83.762 106.126,84.479 105.809,85.169 105.756 C 85.873 105.703,86.725 105.289,87.111 104.813 C 87.490 104.346,88.258 103.916,88.817 103.857 C 89.376 103.798,90.086 103.594,90.393 103.404 C 90.744 103.187,91.011 103.234,91.110 103.529 C 91.378 104.334,91.963 104.045,91.798 103.189 C 91.712 102.743,91.812 102.484,92.021 102.613 C 92.229 102.742,92.400 102.685,92.400 102.487 C 92.400 102.289,92.985 102.143,93.700 102.164 C 94.659 102.190,95.097 101.979,95.370 101.357 C 95.665 100.686,96.095 100.514,97.476 100.514 C 98.524 100.514,99.498 100.254,99.937 99.857 C 100.336 99.496,100.884 99.200,101.155 99.200 C 101.426 99.200,101.542 99.029,101.413 98.821 C 101.284 98.612,101.552 98.514,102.009 98.602 C 102.485 98.693,103.187 98.413,103.656 97.944 C 104.137 97.463,104.788 97.208,105.237 97.325 C 105.656 97.435,106.102 97.359,106.227 97.156 C 106.353 96.953,106.651 96.908,106.889 97.055 C 107.128 97.203,107.218 97.152,107.088 96.943 C 106.541 96.057,107.556 95.494,109.617 95.541 C 110.775 95.567,111.610 95.477,111.474 95.341 C 110.975 94.841,113.025 93.677,114.058 93.875 C 114.858 94.028,115.137 93.885,115.307 93.236 C 115.469 92.615,115.844 92.400,116.763 92.400 C 117.617 92.400,118.000 92.207,118.000 91.776 C 118.000 91.402,118.187 91.268,118.468 91.442 C 118.776 91.632,118.854 91.519,118.698 91.111 C 118.501 90.598,118.782 90.508,120.320 90.587 C 122.329 90.690,123.980 90.381,123.992 89.900 C 123.997 89.735,124.000 89.412,124.000 89.182 C 124.000 88.953,124.225 88.794,124.500 88.830 C 126.284 89.062,127.200 88.764,127.200 87.953 C 127.200 87.304,127.386 87.155,128.000 87.316 C 128.440 87.431,128.800 87.340,128.800 87.114 C 128.800 86.860,129.017 86.882,129.368 87.173 C 129.816 87.545,130.024 87.493,130.356 86.922 C 130.680 86.364,130.781 86.336,130.800 86.800 C 130.819 87.270,130.913 87.247,131.237 86.692 C 131.464 86.302,131.818 86.088,132.025 86.215 C 132.231 86.343,132.400 86.257,132.400 86.024 C 132.400 85.791,132.863 85.600,133.429 85.600 C 134.435 85.600,135.600 84.800,135.600 84.109 C 135.600 83.917,136.205 83.831,136.944 83.918 C 138.042 84.046,138.327 83.921,138.506 83.237 C 138.683 82.562,139.038 82.400,140.339 82.400 C 141.227 82.400,142.064 82.220,142.200 82.000 C 142.336 81.780,142.627 81.600,142.847 81.600 C 143.067 81.600,143.119 81.808,142.962 82.062 C 142.789 82.341,142.852 82.415,143.121 82.249 C 143.365 82.098,143.475 81.740,143.365 81.454 C 143.255 81.168,143.398 80.913,143.683 80.888 C 146.526 80.641,146.947 80.495,147.261 79.647 C 147.444 79.153,147.786 78.868,148.021 79.013 C 148.537 79.332,150.866 78.431,150.607 78.012 C 150.507 77.850,150.863 77.517,151.398 77.274 C 151.934 77.030,152.460 76.974,152.569 77.149 C 152.976 77.809,154.604 77.343,154.470 76.605 C 154.378 76.098,154.521 75.961,154.965 76.131 C 155.338 76.274,155.552 76.175,155.495 75.886 C 155.387 75.331,157.042 75.216,158.100 75.705 C 158.755 76.007,159.034 75.482,158.847 74.300 C 158.821 74.135,159.655 73.979,160.700 73.954 C 163.686 73.881,163.800 73.846,163.802 73.000 C 163.803 72.367,164.071 72.200,165.083 72.200 C 165.811 72.200,166.586 71.909,166.881 71.525 C 167.168 71.152,168.115 70.786,169.000 70.705 C 170.438 70.575,170.598 70.452,170.578 69.491 C 170.560 68.614,170.722 68.436,171.478 68.498 C 171.985 68.540,172.400 68.715,172.400 68.887 C 172.400 69.506,173.603 69.184,174.068 68.440 C 174.329 68.022,174.762 67.764,175.031 67.867 C 175.299 67.970,175.630 67.875,175.766 67.655 C 175.902 67.435,176.449 67.334,176.982 67.431 C 178.037 67.622,179.381 66.228,178.907 65.435 C 178.763 65.196,178.935 65.234,179.288 65.519 C 179.694 65.849,180.019 65.893,180.176 65.639 C 180.312 65.419,181.044 65.319,181.804 65.416 C 182.952 65.563,183.300 65.419,183.861 64.563 C 184.351 63.815,184.791 63.581,185.468 63.711 C 186.046 63.821,186.400 63.697,186.400 63.384 C 186.400 63.106,186.940 62.690,187.600 62.460 C 188.260 62.230,188.800 62.144,188.800 62.270 C 188.800 62.395,189.070 62.274,189.400 62.000 C 189.884 61.599,190.006 61.609,190.032 62.051 C 190.049 62.353,190.238 62.122,190.452 61.538 C 190.759 60.700,191.066 60.500,191.903 60.592 C 193.073 60.720,194.800 60.076,194.800 59.512 C 194.800 59.315,194.968 59.256,195.172 59.383 C 195.377 59.509,195.659 59.429,195.798 59.203 C 195.937 58.978,196.445 58.856,196.926 58.933 C 197.747 59.065,199.361 57.894,198.940 57.473 C 198.833 57.367,199.467 57.319,200.348 57.367 C 201.717 57.442,201.983 57.322,202.178 56.544 C 202.360 55.819,202.669 55.643,203.703 55.678 C 206.037 55.757,206.393 55.647,206.118 54.931 C 205.929 54.439,206.026 54.324,206.482 54.499 C 206.823 54.630,207.259 54.587,207.451 54.403 C 207.643 54.220,208.250 54.009,208.800 53.935 C 209.350 53.861,210.070 53.517,210.400 53.172 C 211.103 52.436,214.558 51.403,215.131 51.757 C 215.360 51.899,215.441 51.677,215.324 51.229 C 215.150 50.566,215.291 50.484,216.326 50.647 C 216.988 50.752,217.648 50.646,217.793 50.412 C 217.937 50.178,218.223 50.091,218.428 50.217 C 218.745 50.414,218.942 49.962,218.877 49.188 C 218.867 49.072,219.341 48.998,219.929 49.026 C 221.090 49.079,222.459 48.420,222.168 47.948 C 221.886 47.491,222.532 47.241,224.234 47.149 C 225.862 47.060,226.932 46.538,226.597 45.995 C 226.490 45.821,226.942 45.717,227.601 45.763 C 228.260 45.808,228.800 45.681,228.800 45.480 C 228.800 45.279,229.087 45.224,229.437 45.359 C 229.862 45.522,230.144 45.336,230.284 44.802 C 230.399 44.361,230.697 43.979,230.947 43.954 C 231.196 43.928,231.580 43.866,231.800 43.815 C 232.020 43.764,232.419 43.694,232.686 43.661 C 233.946 43.503,234.019 42.068,232.799 41.459 C 232.139 41.130,231.600 40.983,231.600 41.131 C 231.600 41.279,231.060 41.400,230.400 41.400 C 229.740 41.400,229.200 41.265,229.200 41.100 C 229.200 40.935,228.840 40.800,228.400 40.800 C 227.813 40.800,227.600 41.067,227.600 41.800 M295.282 49.891 C 295.347 50.271,295.220 50.602,295.000 50.626 C 294.780 50.650,294.285 50.808,293.900 50.977 C 293.515 51.147,292.935 51.184,292.612 51.060 C 291.935 50.800,290.680 51.882,291.020 52.432 C 291.145 52.635,290.697 52.823,290.024 52.850 C 289.351 52.877,288.665 52.937,288.500 52.983 C 286.446 53.548,286.000 53.745,286.000 54.086 C 286.000 54.306,285.752 54.390,285.449 54.274 C 285.146 54.158,284.696 54.264,284.449 54.511 C 284.202 54.758,284.000 54.814,284.000 54.636 C 284.000 54.457,283.656 54.736,283.235 55.256 C 282.672 55.951,282.066 56.200,280.935 56.200 C 279.695 56.200,279.423 56.335,279.518 56.900 C 279.639 57.623,279.340 57.732,277.552 57.618 C 276.945 57.579,276.409 57.800,276.277 58.144 C 276.127 58.534,275.742 58.658,275.157 58.505 C 274.426 58.313,274.314 58.399,274.537 58.980 C 274.746 59.524,274.657 59.631,274.154 59.438 C 273.793 59.299,273.217 59.414,272.873 59.693 C 272.528 59.972,272.358 60.014,272.494 59.786 C 272.630 59.558,272.408 59.371,272.000 59.371 C 271.592 59.371,271.336 59.497,271.431 59.650 C 271.964 60.512,271.036 61.175,269.428 61.081 C 268.301 61.015,267.733 61.147,267.733 61.473 C 267.733 61.744,267.928 61.848,268.167 61.706 C 268.405 61.563,268.377 61.723,268.103 62.060 C 267.830 62.397,267.735 62.802,267.891 62.958 C 268.048 63.114,267.894 63.134,267.549 63.002 C 266.030 62.419,264.579 62.578,263.776 63.417 C 262.876 64.357,260.916 64.911,260.555 64.327 C 260.260 63.850,259.200 64.728,259.200 65.449 C 259.200 65.757,258.795 66.000,258.280 66.000 C 257.774 66.000,257.118 66.225,256.821 66.500 C 256.390 66.900,256.339 66.900,256.565 66.500 C 256.738 66.193,256.606 66.000,256.224 66.000 C 255.881 66.000,255.600 66.264,255.600 66.587 C 255.600 66.971,255.369 67.086,254.934 66.919 C 254.487 66.748,254.364 66.817,254.558 67.132 C 254.721 67.396,254.619 67.613,254.324 67.630 C 252.893 67.711,251.934 68.066,251.222 68.778 C 250.784 69.216,250.076 69.492,249.615 69.403 C 248.667 69.220,246.400 69.923,246.400 70.399 C 246.400 70.575,245.635 71.118,244.700 71.606 C 242.477 72.767,241.102 73.282,241.365 72.857 C 241.481 72.669,241.121 72.603,240.565 72.709 C 239.895 72.837,239.627 73.094,239.772 73.472 C 239.892 73.785,239.828 73.941,239.630 73.818 C 239.431 73.695,239.204 73.789,239.125 74.025 C 239.046 74.262,238.339 74.491,237.554 74.536 C 236.769 74.580,235.815 74.927,235.435 75.308 C 234.786 75.957,234.229 76.166,233.484 76.042 C 233.310 76.013,232.842 76.163,232.445 76.376 C 231.960 76.636,231.576 76.616,231.276 76.316 C 230.947 75.987,230.875 76.124,231.004 76.835 C 231.148 77.627,231.002 77.815,230.190 77.883 C 228.227 78.049,228.085 78.132,228.186 79.056 C 228.250 79.632,228.126 79.878,227.856 79.711 C 226.893 79.116,224.400 79.255,224.400 79.903 C 224.400 80.250,224.279 80.413,224.132 80.265 C 223.984 80.118,223.424 80.285,222.887 80.637 C 222.312 81.014,221.366 81.214,220.586 81.122 C 219.428 80.987,219.309 81.056,219.636 81.667 C 219.922 82.202,219.810 82.474,219.157 82.823 C 218.486 83.182,218.370 83.172,218.614 82.778 C 218.826 82.434,218.761 82.377,218.407 82.595 C 218.124 82.771,217.511 82.937,217.046 82.964 C 216.510 82.996,216.238 83.247,216.305 83.651 C 216.413 84.308,212.408 85.100,211.577 84.586 C 211.375 84.461,211.316 84.638,211.447 84.979 C 211.579 85.322,211.476 85.600,211.219 85.600 C 210.963 85.600,210.854 85.763,210.977 85.963 C 211.100 86.162,210.822 86.226,210.360 86.105 C 209.866 85.976,209.372 86.116,209.165 86.443 C 208.874 86.903,208.811 86.905,208.806 86.456 C 208.802 86.127,208.506 86.275,208.058 86.828 C 207.511 87.503,206.853 87.763,205.558 87.815 C 204.514 87.857,203.839 88.066,203.895 88.329 C 203.948 88.572,203.721 88.668,203.391 88.541 C 202.959 88.375,202.862 88.496,203.045 88.972 C 203.267 89.551,203.045 89.604,201.279 89.402 C 199.399 89.188,199.250 89.235,199.130 90.086 C 199.058 90.589,198.730 91.024,198.400 91.054 C 198.070 91.083,197.710 91.143,197.600 91.186 C 197.490 91.230,196.946 91.300,196.391 91.342 C 195.836 91.384,194.967 91.833,194.460 92.340 C 193.953 92.847,193.282 93.164,192.969 93.043 C 192.636 92.916,192.400 93.069,192.400 93.413 C 192.400 93.739,192.034 94.000,191.576 94.000 C 191.123 94.000,190.839 94.139,190.944 94.310 C 191.049 94.480,190.448 94.581,189.608 94.534 C 188.392 94.466,188.039 94.606,187.878 95.224 C 187.687 95.954,187.028 96.145,184.720 96.142 C 184.346 96.141,184.131 96.289,184.243 96.470 C 184.356 96.652,184.077 96.800,183.624 96.800 C 183.171 96.800,182.800 97.051,182.800 97.357 C 182.800 98.079,181.711 98.501,181.456 97.878 C 181.311 97.523,181.165 97.537,180.886 97.934 C 180.679 98.228,180.396 98.453,180.255 98.434 C 179.480 98.330,179.210 98.447,179.300 98.847 C 179.393 99.265,178.775 99.502,177.100 99.691 C 176.458 99.764,176.338 99.938,176.434 100.655 C 176.506 101.192,175.403 101.535,174.913 101.128 C 174.598 100.867,174.400 100.854,174.400 101.096 C 174.400 101.312,173.782 101.422,173.028 101.338 C 171.620 101.183,170.710 101.850,171.589 102.393 C 171.859 102.560,171.222 102.714,170.173 102.735 C 168.547 102.768,166.407 103.600,167.949 103.600 C 168.349 103.600,168.345 103.707,167.929 104.106 C 167.634 104.387,166.513 104.596,165.400 104.576 C 163.004 104.534,162.611 104.690,163.230 105.436 C 163.718 106.024,163.194 106.196,161.466 106.015 C 160.623 105.927,159.114 107.138,159.430 107.649 C 159.546 107.837,159.360 107.883,159.016 107.751 C 158.671 107.619,158.122 107.733,157.795 108.004 C 157.323 108.396,157.200 108.395,157.200 108.000 C 157.200 107.603,157.079 107.603,156.600 108.000 C 156.270 108.274,156.000 108.720,156.000 108.990 C 156.000 109.322,155.411 109.451,154.200 109.386 C 152.761 109.308,152.399 109.421,152.394 109.944 C 152.389 110.475,152.321 110.494,152.037 110.046 C 151.757 109.603,151.594 109.664,151.229 110.346 C 150.923 110.917,150.387 111.200,149.609 111.200 C 148.905 111.200,148.227 111.511,147.893 111.988 C 147.572 112.446,146.795 112.818,146.038 112.876 C 145.274 112.934,144.577 113.270,144.353 113.688 C 144.053 114.249,143.465 114.400,141.586 114.400 C 139.383 114.400,138.613 114.790,139.607 115.404 C 140.407 115.899,139.494 116.451,138.171 116.273 C 136.877 116.098,135.694 116.761,136.270 117.337 C 136.415 117.482,136.278 117.617,135.967 117.638 C 132.840 117.845,131.200 118.269,131.200 118.870 C 131.200 119.078,131.408 119.119,131.662 118.962 C 131.944 118.787,132.015 118.852,131.844 119.128 C 131.664 119.419,130.896 119.494,129.683 119.338 C 128.174 119.144,127.894 119.197,128.274 119.602 C 129.102 120.486,127.902 121.231,126.029 120.995 C 124.626 120.819,124.400 120.896,124.400 121.546 C 124.400 122.514,123.385 123.423,123.000 122.800 C 122.805 122.485,122.569 122.493,122.164 122.830 C 121.727 123.192,121.600 123.179,121.600 122.773 C 121.600 122.445,121.363 122.539,120.970 123.024 C 120.624 123.451,120.455 123.575,120.594 123.300 C 120.744 123.003,120.588 122.800,120.210 122.800 C 119.694 122.800,119.655 122.955,120.003 123.606 C 120.240 124.049,120.292 124.388,120.117 124.358 C 118.838 124.144,117.211 124.531,116.464 125.226 C 115.876 125.774,114.983 126.072,113.817 126.110 C 112.806 126.143,112.157 126.331,112.294 126.552 C 112.431 126.774,112.242 126.825,111.845 126.673 C 111.457 126.524,111.259 126.572,111.390 126.785 C 111.661 127.222,110.227 128.094,109.853 127.719 C 109.714 127.580,109.600 127.699,109.600 127.982 C 109.600 128.388,109.476 128.395,109.018 128.015 C 108.299 127.418,107.540 127.827,107.689 128.730 C 107.766 129.196,107.495 129.418,106.800 129.461 C 106.250 129.494,105.564 129.539,105.276 129.561 C 104.988 129.582,104.864 129.780,105.000 130.000 C 105.136 130.220,105.046 130.400,104.800 130.400 C 104.554 130.400,104.479 130.604,104.633 130.854 C 104.828 131.169,104.518 131.249,103.612 131.116 C 102.328 130.928,99.906 131.532,99.307 132.190 C 99.138 132.375,99.315 132.414,99.700 132.276 C 100.563 131.967,100.651 132.894,99.824 133.580 C 99.507 133.843,99.349 134.323,99.473 134.646 C 99.597 134.970,99.794 135.140,99.910 135.023 C 100.026 134.907,100.358 135.125,100.648 135.506 C 100.937 135.888,101.180 136.003,101.187 135.761 C 101.204 135.181,102.624 133.557,102.885 133.818 C 102.997 133.931,103.552 133.846,104.118 133.631 C 104.858 133.350,105.201 133.375,105.342 133.720 C 105.449 133.984,105.551 133.699,105.568 133.086 C 105.599 132.002,105.654 131.976,107.540 132.125 C 109.375 132.269,111.116 131.649,110.527 131.060 C 110.282 130.815,112.129 130.610,113.000 130.786 C 113.220 130.830,113.268 130.735,113.107 130.574 C 112.607 130.074,114.470 128.793,115.574 128.877 C 116.151 128.921,116.843 128.821,117.111 128.655 C 117.380 128.489,117.600 128.543,117.600 128.776 C 117.600 129.009,117.960 129.200,118.400 129.200 C 118.933 129.200,119.200 128.933,119.200 128.400 C 119.200 127.960,118.990 127.600,118.733 127.600 C 118.024 127.600,118.580 127.196,119.546 127.010 C 120.031 126.917,120.403 127.052,120.406 127.323 C 120.410 127.638,120.531 127.612,120.761 127.249 C 120.965 126.928,121.322 126.828,121.617 127.011 C 121.923 127.200,122.024 127.162,121.871 126.915 C 121.732 126.691,121.975 126.185,122.409 125.791 C 122.844 125.398,123.200 125.254,123.200 125.471 C 123.200 126.019,124.600 125.864,125.362 125.231 C 125.708 124.944,125.893 124.550,125.772 124.355 C 125.523 123.952,125.579 123.939,127.900 123.884 C 128.835 123.862,129.600 123.688,129.600 123.498 C 129.600 123.308,129.771 123.258,129.979 123.387 C 130.188 123.516,130.297 123.302,130.222 122.911 C 130.115 122.351,130.369 122.190,131.418 122.153 C 132.930 122.100,134.000 121.285,134.000 120.186 C 134.000 120.068,134.360 120.165,134.800 120.400 C 135.356 120.698,135.836 120.702,136.376 120.413 C 136.892 120.137,137.234 120.132,137.399 120.399 C 137.950 121.290,139.302 120.844,139.109 119.835 C 138.910 118.793,140.364 118.124,141.140 118.900 C 141.381 119.141,141.618 118.972,141.787 118.440 C 141.934 117.978,142.267 117.573,142.527 117.539 C 142.787 117.506,143.180 117.436,143.400 117.385 C 143.620 117.334,144.126 117.272,144.524 117.246 C 144.922 117.221,145.142 117.029,145.012 116.820 C 144.780 116.444,146.076 115.535,146.684 115.648 C 147.340 115.770,149.627 115.080,149.870 114.687 C 150.029 114.430,149.913 114.399,149.562 114.602 C 149.229 114.795,149.136 114.780,149.333 114.564 C 149.517 114.364,149.787 114.192,149.933 114.182 C 151.354 114.086,153.241 113.456,153.502 112.990 C 153.679 112.672,154.394 112.350,155.090 112.274 C 155.786 112.198,156.635 111.903,156.977 111.619 C 157.497 111.187,157.600 111.209,157.600 111.751 C 157.600 112.133,157.929 112.400,158.400 112.400 C 159.297 112.400,159.541 110.998,158.700 110.674 C 158.425 110.567,158.961 110.512,159.891 110.551 C 161.464 110.617,162.265 110.094,162.073 109.128 C 162.043 108.978,162.720 108.926,163.576 109.011 C 164.980 109.151,165.172 109.056,165.521 108.054 C 165.906 106.951,168.200 106.467,169.044 107.311 C 169.793 108.060,170.893 107.596,170.704 106.611 C 170.548 105.793,170.657 105.644,171.337 105.748 C 171.850 105.826,172.511 105.454,173.098 104.756 C 173.615 104.142,174.268 103.728,174.550 103.836 C 175.271 104.113,177.227 103.307,177.103 102.783 C 177.043 102.531,177.837 102.280,179.000 102.184 C 180.419 102.066,181.203 101.770,181.699 101.165 C 182.185 100.574,182.676 100.382,183.303 100.540 C 183.800 100.665,184.475 100.597,184.803 100.389 C 185.131 100.182,185.243 100.009,185.051 100.006 C 184.859 100.003,184.917 99.741,185.179 99.425 C 185.542 98.987,186.268 98.905,188.228 99.077 C 190.770 99.300,190.800 99.291,190.800 98.294 C 190.800 97.139,191.357 96.822,193.025 97.027 C 193.671 97.106,193.896 97.077,193.525 96.961 C 192.231 96.558,193.876 95.220,195.199 95.600 C 196.488 95.969,197.050 95.697,197.263 94.600 C 197.385 93.970,197.692 93.821,198.709 93.901 C 199.423 93.957,200.000 93.811,200.000 93.574 C 200.000 93.320,200.345 93.255,200.850 93.416 C 201.380 93.584,201.606 93.534,201.451 93.282 C 201.130 92.764,203.301 91.997,204.328 92.265 C 204.758 92.378,205.248 92.246,205.417 91.973 C 205.630 91.627,205.553 91.573,205.162 91.795 C 204.742 92.033,204.753 91.949,205.207 91.463 C 205.541 91.106,206.463 90.766,207.256 90.707 C 208.322 90.628,208.650 90.444,208.516 90.000 C 208.384 89.562,208.490 89.589,208.911 90.100 C 209.832 91.217,210.934 91.011,210.696 89.766 C 210.533 88.916,210.628 88.766,211.230 88.924 C 211.632 89.029,212.046 88.909,212.149 88.658 C 212.279 88.340,212.347 88.352,212.368 88.696 C 212.390 89.039,212.641 88.986,213.180 88.525 C 213.608 88.158,213.868 87.709,213.756 87.529 C 213.644 87.348,214.103 87.178,214.776 87.150 C 216.841 87.066,217.004 87.003,216.893 86.339 C 216.773 85.613,218.662 85.052,219.060 85.696 C 219.201 85.925,219.441 85.862,219.644 85.543 C 219.924 85.100,219.990 85.111,220.000 85.600 C 220.011 86.133,220.055 86.133,220.400 85.600 C 220.658 85.200,220.790 85.167,220.794 85.500 C 220.797 85.775,221.160 86.000,221.600 86.000 C 222.177 86.000,222.400 85.733,222.400 85.043 C 222.400 83.984,223.108 83.546,224.313 83.861 C 224.905 84.016,225.235 83.768,225.631 82.874 C 226.084 81.851,226.291 81.731,227.080 82.030 C 227.672 82.256,228.000 82.233,228.000 81.966 C 228.000 81.739,228.184 81.667,228.410 81.806 C 228.635 81.945,228.794 81.911,228.763 81.730 C 228.572 80.635,228.852 80.326,229.815 80.568 C 231.534 81.000,234.176 80.098,233.530 79.300 C 233.146 78.826,233.138 78.729,233.500 78.947 C 233.781 79.116,234.000 79.051,234.000 78.800 C 234.000 78.552,234.216 78.486,234.483 78.651 C 235.634 79.363,236.727 79.144,236.976 78.153 C 237.112 77.611,237.386 77.268,237.584 77.390 C 237.782 77.513,238.070 77.411,238.222 77.164 C 238.419 76.846,238.600 76.873,238.844 77.257 C 239.062 77.601,239.190 77.630,239.194 77.335 C 239.200 76.850,240.174 76.841,240.655 77.322 C 241.346 78.012,242.400 77.576,242.400 76.600 C 242.400 75.930,242.631 75.586,243.100 75.557 C 243.485 75.534,244.160 75.489,244.600 75.457 C 245.094 75.422,245.447 75.066,245.524 74.529 C 245.632 73.773,245.856 73.677,247.224 73.802 C 248.680 73.935,248.991 73.734,248.861 72.740 C 248.814 72.380,250.756 71.925,251.191 72.194 C 251.385 72.315,251.660 72.227,251.800 72.000 C 251.940 71.773,252.223 71.691,252.428 71.817 C 252.632 71.944,252.800 71.857,252.800 71.624 C 252.800 71.391,253.070 71.200,253.400 71.200 C 253.730 71.200,254.000 71.043,254.000 70.850 C 254.000 70.658,254.481 70.500,255.069 70.500 C 255.657 70.500,256.383 70.165,256.682 69.755 C 256.982 69.345,257.742 68.989,258.372 68.964 C 259.001 68.938,259.805 68.807,260.158 68.671 C 260.511 68.536,260.800 68.599,260.800 68.813 C 260.800 69.026,261.160 69.200,261.600 69.200 C 262.484 69.200,262.780 67.609,261.900 67.588 C 261.625 67.581,261.731 67.383,262.135 67.148 C 262.540 66.913,263.474 66.791,264.210 66.877 C 265.210 66.994,265.594 66.865,265.724 66.369 C 265.830 65.962,266.267 65.725,266.849 65.759 C 267.833 65.815,268.840 65.205,268.551 64.728 C 268.275 64.269,269.081 63.979,270.998 63.847 C 272.218 63.762,273.087 63.443,273.604 62.888 C 274.152 62.300,274.739 62.101,275.603 62.210 C 276.315 62.301,276.727 62.206,276.589 61.983 C 276.459 61.772,276.554 61.600,276.800 61.600 C 277.046 61.600,277.148 61.439,277.026 61.242 C 276.735 60.771,277.834 60.362,278.600 60.655 C 278.951 60.790,279.203 60.660,279.206 60.343 C 279.210 59.964,279.301 59.938,279.506 60.256 C 279.719 60.586,279.942 60.558,280.316 60.156 C 280.613 59.835,280.655 59.600,280.416 59.600 C 279.073 59.600,280.301 58.907,281.700 58.876 C 284.339 58.816,285.837 58.307,285.409 57.614 C 285.296 57.433,285.468 57.183,285.789 57.059 C 286.111 56.936,286.470 56.990,286.588 57.180 C 286.842 57.591,288.400 57.249,288.400 56.782 C 288.400 55.915,289.667 55.208,290.461 55.632 C 291.103 55.976,291.381 55.915,291.839 55.332 C 292.246 54.811,292.381 54.770,292.306 55.191 C 292.242 55.547,292.577 55.838,293.150 55.925 C 293.992 56.052,294.082 55.938,293.934 54.932 C 293.774 53.840,293.825 53.800,295.226 53.934 C 296.595 54.064,296.704 53.990,296.980 52.737 C 297.142 52.001,297.363 51.625,297.471 51.900 C 297.578 52.175,298.022 52.400,298.457 52.400 C 298.983 52.400,299.147 52.233,298.947 51.900 C 298.708 51.503,298.772 51.501,299.253 51.890 C 299.717 52.266,299.969 52.271,300.330 51.910 C 300.904 51.336,300.948 50.400,300.400 50.400 C 300.180 50.400,300.000 50.209,300.000 49.976 C 300.000 49.743,300.208 49.681,300.462 49.838 C 300.716 49.995,300.818 49.953,300.690 49.745 C 300.405 49.285,297.183 49.316,296.422 49.786 C 296.054 50.014,295.969 49.973,296.162 49.662 C 296.332 49.386,296.189 49.200,295.806 49.200 C 295.420 49.200,295.212 49.475,295.282 49.891 M294.327 91.900 C 294.216 92.858,294.036 92.993,292.922 92.943 C 291.899 92.898,291.620 93.058,291.522 93.743 C 291.418 94.476,291.159 94.590,289.739 94.529 C 288.441 94.473,288.037 94.615,287.890 95.176 C 287.759 95.678,287.147 95.977,285.851 96.171 C 284.833 96.324,284.000 96.618,284.000 96.825 C 284.000 97.031,283.730 97.200,283.400 97.200 C 283.070 97.200,282.800 97.400,282.800 97.643 C 282.800 97.917,282.416 97.990,281.800 97.836 C 281.223 97.691,280.800 97.757,280.800 97.992 C 280.800 98.217,280.440 98.400,280.000 98.400 C 279.560 98.400,279.245 98.535,279.300 98.700 C 279.419 99.056,279.041 99.230,277.300 99.623 C 276.584 99.784,276.000 99.755,276.000 99.558 C 276.000 99.361,275.640 99.200,275.200 99.200 C 274.571 99.200,274.400 99.467,274.400 100.451 C 274.400 101.693,274.388 101.700,272.750 101.438 C 271.230 101.195,271.117 101.239,271.313 101.987 C 271.461 102.555,271.325 102.812,270.863 102.839 C 270.498 102.861,269.751 102.906,269.202 102.939 C 268.653 102.973,268.200 103.180,268.196 103.400 C 268.178 104.289,267.569 104.655,266.220 104.588 C 265.439 104.549,264.800 104.665,264.800 104.846 C 264.800 105.027,264.544 105.077,264.231 104.956 C 263.912 104.834,263.480 105.076,263.250 105.506 C 262.955 106.057,262.467 106.251,261.520 106.192 C 259.719 106.080,259.253 106.316,259.490 107.221 C 259.677 107.936,259.502 107.977,257.001 107.806 C 254.382 107.626,254.315 107.645,254.484 108.525 C 254.601 109.140,254.456 109.445,254.028 109.481 C 252.307 109.625,251.069 110.264,251.417 110.828 C 251.659 111.219,251.171 111.333,249.741 111.221 C 249.269 111.184,248.437 111.600,247.892 112.145 C 247.034 113.003,246.625 113.113,244.850 112.965 C 243.007 112.811,242.800 112.874,242.800 113.597 C 242.800 114.244,242.535 114.400,241.439 114.400 C 240.292 114.400,240.014 114.585,239.667 115.580 C 239.292 116.656,239.150 116.730,238.068 116.420 C 236.780 116.050,235.921 116.529,236.265 117.425 C 236.409 117.800,236.140 117.918,235.334 117.831 C 234.071 117.696,231.519 118.745,231.841 119.266 C 231.954 119.450,231.812 119.614,231.524 119.631 C 231.236 119.647,230.685 119.722,230.300 119.795 C 229.915 119.869,229.600 119.765,229.600 119.565 C 229.600 119.364,229.420 119.200,229.200 119.200 C 228.980 119.200,228.800 119.470,228.800 119.800 C 228.800 120.130,228.620 120.400,228.400 120.400 C 228.180 120.400,228.000 120.645,228.000 120.945 C 228.000 121.283,227.659 121.439,227.100 121.356 C 226.605 121.282,225.435 121.103,224.500 120.958 C 222.875 120.706,222.800 120.740,222.800 121.716 C 222.800 122.509,222.550 122.791,221.678 122.983 C 221.060 123.119,220.315 123.563,220.021 123.971 C 219.646 124.491,219.145 124.658,218.339 124.532 C 217.204 124.353,215.742 125.259,216.136 125.897 C 216.240 126.064,215.524 126.186,214.546 126.168 C 213.564 126.150,212.461 126.387,212.084 126.698 C 211.708 127.007,211.653 127.128,211.962 126.968 C 212.302 126.791,212.424 126.838,212.270 127.087 C 212.031 127.473,209.750 128.169,209.100 128.054 C 208.935 128.024,208.583 127.955,208.319 127.900 C 208.054 127.845,207.829 128.160,207.819 128.600 C 207.807 129.113,207.513 129.415,207.000 129.441 C 206.560 129.463,205.795 129.611,205.300 129.768 C 204.750 129.943,204.400 129.888,204.400 129.627 C 204.400 129.392,204.040 129.200,203.600 129.200 C 203.091 129.200,202.800 129.467,202.800 129.932 C 202.800 130.794,201.120 131.808,200.247 131.474 C 199.866 131.327,199.549 131.530,199.394 132.020 C 199.164 132.742,198.706 132.985,197.859 132.834 C 197.300 132.734,196.013 133.227,196.055 133.524 C 196.194 134.496,195.820 134.637,193.429 134.515 C 191.015 134.393,190.850 134.440,190.729 135.292 C 190.658 135.792,190.420 136.213,190.200 136.229 C 189.284 136.294,187.644 137.347,187.875 137.722 C 188.026 137.965,187.804 138.042,187.319 137.915 C 186.876 137.799,186.218 137.870,185.857 138.072 C 185.399 138.329,185.188 138.283,185.160 137.920 C 185.138 137.634,184.996 137.846,184.844 138.391 C 184.630 139.160,184.267 139.406,183.225 139.491 C 182.487 139.551,181.639 139.802,181.341 140.049 C 180.931 140.389,180.797 140.365,180.787 139.949 C 180.778 139.598,180.507 139.719,180.036 140.284 C 179.579 140.831,178.709 141.231,177.749 141.333 C 176.588 141.458,176.229 141.662,176.318 142.150 C 176.414 142.683,175.248 143.103,174.700 142.732 C 174.645 142.695,174.195 142.882,173.700 143.146 C 173.123 143.455,172.800 143.479,172.800 143.214 C 172.800 142.986,172.329 142.800,171.753 142.800 C 170.850 142.800,170.733 142.938,170.899 143.808 C 171.081 144.760,171.017 144.802,169.746 144.563 C 168.515 144.333,168.400 144.395,168.400 145.293 C 168.400 146.223,168.290 146.269,166.328 146.169 C 165.188 146.111,164.452 146.185,164.694 146.334 C 165.485 146.824,164.287 147.887,162.999 147.838 C 162.339 147.813,161.371 148.109,160.846 148.496 C 160.321 148.883,159.567 149.200,159.170 149.200 C 158.772 149.200,158.331 149.389,158.188 149.619 C 158.008 149.911,157.770 149.907,157.410 149.609 C 157.014 149.280,156.831 149.421,156.634 150.206 C 156.493 150.771,156.202 151.125,155.988 150.993 C 155.775 150.861,155.597 150.988,155.594 151.276 C 155.589 151.676,155.515 151.685,155.279 151.314 C 155.039 150.937,154.725 150.954,153.885 151.390 C 152.947 151.876,152.800 151.875,152.800 151.376 C 152.800 150.208,150.865 150.697,150.727 151.900 C 150.657 152.505,150.510 152.925,150.400 152.832 C 150.290 152.740,149.795 152.882,149.300 153.146 C 148.584 153.530,148.399 153.523,148.394 153.114 C 148.389 152.742,148.286 152.761,148.020 153.181 C 147.818 153.500,147.742 153.905,147.850 154.081 C 147.958 154.256,147.902 154.415,147.724 154.432 C 147.546 154.450,146.909 154.501,146.308 154.545 C 145.707 154.590,144.961 154.974,144.649 155.400 C 144.261 155.931,143.557 156.193,142.412 156.231 C 141.358 156.266,140.494 156.558,140.071 157.022 C 139.432 157.721,139.438 157.729,140.200 157.178 C 140.918 156.660,140.949 156.665,140.508 157.232 C 140.171 157.663,139.452 157.840,138.237 157.789 C 136.672 157.724,136.429 157.829,136.221 158.658 C 136.070 159.259,135.692 159.600,135.176 159.600 C 134.731 159.600,133.980 159.960,133.508 160.400 C 133.036 160.840,132.857 161.200,133.112 161.200 C 133.367 161.200,133.482 161.442,133.368 161.739 C 133.222 162.118,133.550 162.290,134.481 162.321 C 136.044 162.373,138.443 161.594,138.155 161.127 C 137.962 160.815,138.842 160.633,139.895 160.769 C 140.687 160.871,142.000 160.023,142.000 159.410 C 142.000 159.037,142.371 158.884,143.100 158.955 C 144.486 159.091,145.600 158.556,145.600 157.756 C 145.600 157.322,145.926 157.174,146.700 157.255 C 147.305 157.319,147.980 157.276,148.200 157.161 C 148.420 157.046,149.087 156.971,149.681 156.994 C 150.519 157.027,150.666 156.921,150.336 156.522 C 149.829 155.912,151.535 155.080,152.201 155.613 C 152.651 155.973,154.000 155.137,154.000 154.499 C 154.000 153.917,154.968 153.614,155.980 153.879 C 156.545 154.027,157.023 153.849,157.384 153.354 C 157.685 152.943,158.172 152.595,158.466 152.583 C 160.070 152.515,162.000 151.844,162.000 151.355 C 162.000 150.958,162.550 150.800,163.928 150.800 C 165.502 150.800,166.020 150.611,166.754 149.767 C 167.248 149.199,167.880 148.822,168.160 148.929 C 168.439 149.036,168.997 148.685,169.400 148.148 C 169.803 147.611,170.418 147.199,170.766 147.232 C 172.285 147.376,173.629 147.171,173.417 146.828 C 173.127 146.358,173.904 145.860,175.200 145.686 C 175.750 145.611,176.260 145.383,176.332 145.179 C 176.411 144.957,176.779 144.974,177.241 145.222 C 178.146 145.706,178.944 145.351,178.653 144.593 C 178.402 143.939,179.059 143.670,180.519 143.828 C 181.383 143.922,181.720 143.738,181.992 143.021 C 182.270 142.290,182.605 142.115,183.572 142.198 C 184.391 142.267,184.800 142.121,184.800 141.759 C 184.800 141.460,185.295 141.111,185.900 140.983 C 186.505 140.856,187.302 140.589,187.671 140.390 C 188.091 140.164,188.393 140.180,188.477 140.432 C 188.551 140.654,189.056 140.422,189.598 139.917 C 190.141 139.413,190.948 138.986,191.393 138.968 C 193.608 138.882,193.909 138.776,193.856 138.100 C 193.813 137.562,194.100 137.405,195.100 137.422 C 195.815 137.434,196.400 137.324,196.400 137.178 C 196.400 137.031,196.861 136.999,197.424 137.107 C 198.232 137.261,198.497 137.115,198.680 136.414 C 198.866 135.704,199.139 135.559,200.041 135.691 C 200.802 135.803,201.246 135.656,201.406 135.240 C 201.613 134.701,201.690 134.697,202.015 135.211 C 202.243 135.570,202.390 135.614,202.394 135.324 C 202.397 135.062,202.201 134.724,201.957 134.574 C 201.207 134.110,202.286 133.721,204.018 133.832 C 205.470 133.924,205.600 133.849,205.600 132.922 C 205.600 131.991,205.707 131.931,206.944 132.163 C 207.684 132.302,208.719 132.243,209.244 132.033 C 209.770 131.823,209.964 131.639,209.676 131.625 C 209.388 131.611,209.269 131.411,209.412 131.181 C 209.586 130.899,209.881 130.931,210.312 131.281 C 210.793 131.670,210.878 131.675,210.653 131.300 C 210.384 130.852,210.867 130.731,212.611 130.809 C 212.727 130.815,213.222 130.363,213.711 129.805 C 214.217 129.228,215.101 128.753,215.762 128.703 C 216.467 128.650,216.993 128.348,217.101 127.936 C 217.211 127.515,217.683 127.252,218.339 127.247 C 218.923 127.242,219.760 127.153,220.200 127.050 C 220.640 126.946,221.360 126.835,221.800 126.802 C 222.548 126.748,222.552 126.725,221.862 126.453 C 221.200 126.193,221.231 126.114,222.162 125.690 C 222.898 125.355,223.200 125.345,223.200 125.658 C 223.200 125.953,223.398 125.934,223.800 125.600 C 224.215 125.256,224.400 125.241,224.400 125.551 C 224.400 125.798,224.725 125.685,225.122 125.300 C 225.594 124.843,225.698 124.498,225.422 124.306 C 225.190 124.144,225.945 124.009,227.100 124.006 C 228.307 124.003,229.200 123.820,229.200 123.576 C 229.200 123.343,229.365 123.255,229.568 123.380 C 229.770 123.505,230.249 123.294,230.633 122.910 C 231.016 122.527,231.526 122.206,231.765 122.198 C 232.823 122.163,234.000 121.494,234.000 120.929 C 234.000 120.460,234.335 120.352,235.400 120.476 C 236.194 120.569,236.826 120.458,236.861 120.220 C 236.894 119.989,236.940 119.530,236.961 119.200 C 236.983 118.870,237.136 118.645,237.301 118.700 C 238.338 119.047,238.968 119.060,239.849 118.753 C 240.342 118.582,240.887 118.647,241.149 118.909 C 241.484 119.244,241.600 119.133,241.600 118.480 C 241.600 117.655,242.019 117.438,243.500 117.493 C 243.775 117.503,244.000 117.351,244.000 117.156 C 244.000 116.960,244.191 116.800,244.424 116.800 C 244.657 116.800,244.719 117.008,244.562 117.262 C 244.384 117.550,244.452 117.615,244.745 117.434 C 245.002 117.275,245.121 116.996,245.009 116.814 C 244.896 116.633,245.085 116.376,245.428 116.245 C 245.770 116.113,245.966 115.869,245.864 115.703 C 245.761 115.536,246.649 115.444,247.838 115.498 C 249.898 115.591,250.223 115.415,250.047 114.300 C 250.021 114.135,250.450 114.000,251.000 114.000 C 251.550 114.000,252.090 114.000,252.200 114.000 C 252.310 114.000,252.760 113.640,253.200 113.200 C 253.640 112.760,254.495 112.397,255.100 112.394 C 256.384 112.387,256.964 112.056,257.302 111.138 C 257.492 110.623,257.995 110.495,259.562 110.566 C 261.121 110.636,261.486 110.545,261.170 110.164 C 260.911 109.852,260.903 109.584,261.146 109.433 C 261.358 109.302,261.623 109.421,261.734 109.698 C 261.866 110.025,261.948 109.977,261.968 109.560 C 261.993 109.058,262.342 108.954,263.588 109.079 C 265.002 109.220,265.202 109.130,265.423 108.253 C 265.629 107.432,265.881 107.286,266.935 107.378 C 268.240 107.491,269.344 106.957,268.990 106.383 C 268.698 105.911,270.037 105.573,271.520 105.746 C 272.224 105.828,272.800 105.739,272.800 105.548 C 272.800 105.356,273.070 105.200,273.400 105.200 C 273.730 105.200,274.000 104.885,274.000 104.500 C 274.000 103.935,274.337 103.806,275.744 103.833 C 277.054 103.857,277.478 103.717,277.444 103.271 C 277.393 102.577,279.446 101.901,280.550 102.249 C 281.036 102.402,281.205 102.331,281.029 102.047 C 280.856 101.766,280.997 101.701,281.425 101.865 C 281.972 102.075,282.043 101.948,281.820 101.161 C 281.634 100.506,281.667 100.373,281.924 100.743 C 282.191 101.128,282.381 101.155,282.578 100.836 C 282.730 100.589,283.015 100.485,283.209 100.606 C 283.904 101.035,285.617 100.326,285.507 99.655 C 285.419 99.115,285.728 99.018,287.272 99.104 C 288.948 99.198,289.157 99.114,289.272 98.304 C 289.366 97.636,289.710 97.365,290.587 97.265 C 291.240 97.191,292.277 96.772,292.891 96.335 C 293.596 95.833,294.480 95.588,295.291 95.670 C 296.328 95.775,296.671 95.609,297.073 94.804 C 297.346 94.256,297.802 93.786,298.085 93.761 C 300.163 93.575,301.221 92.364,300.199 91.342 C 299.737 90.880,299.599 90.864,299.594 91.271 C 299.589 91.699,299.522 91.696,299.244 91.257 C 298.980 90.841,298.830 90.828,298.600 91.200 C 298.370 91.572,298.218 91.559,297.950 91.143 C 297.660 90.692,297.535 90.702,297.217 91.197 C 296.911 91.672,296.732 91.692,296.337 91.297 C 295.454 90.414,294.463 90.711,294.327 91.900 M361.388 99.521 C 361.958 100.091,360.718 101.117,359.660 100.951 C 358.757 100.808,358.368 100.989,357.838 101.798 C 357.468 102.363,357.005 102.727,356.810 102.606 C 356.615 102.486,356.337 102.579,356.192 102.813 C 356.009 103.109,355.757 103.096,355.364 102.770 C 355.039 102.501,354.800 102.470,354.800 102.699 C 354.800 102.917,354.395 103.074,353.900 103.048 C 353.375 103.020,353.042 103.208,353.100 103.500 C 353.155 103.775,353.020 104.022,352.800 104.050 C 352.580 104.078,352.220 104.145,352.000 104.200 C 351.780 104.255,351.432 104.322,351.227 104.350 C 351.022 104.378,350.740 104.760,350.600 105.200 C 350.387 105.871,349.995 106.000,348.173 106.000 C 346.143 106.000,346.000 106.063,346.000 106.965 C 346.000 107.780,345.830 107.911,344.900 107.807 C 344.295 107.739,343.485 107.851,343.100 108.056 C 342.633 108.304,342.400 108.282,342.400 107.990 C 342.400 107.750,342.208 107.672,341.973 107.817 C 341.738 107.962,341.642 108.333,341.760 108.640 C 341.967 109.180,341.411 109.367,339.987 109.236 C 339.649 109.205,338.934 109.589,338.396 110.090 C 337.859 110.590,337.115 111.000,336.743 111.000 C 336.371 111.000,335.944 111.123,335.794 111.272 C 335.644 111.422,335.269 111.448,334.961 111.330 C 334.589 111.187,334.400 111.398,334.400 111.954 C 334.400 112.668,334.175 112.786,332.900 112.737 C 330.791 112.656,329.488 113.132,329.775 113.879 C 329.964 114.372,329.709 114.456,328.404 114.332 C 327.290 114.226,326.800 114.335,326.800 114.689 C 326.800 114.970,326.609 115.200,326.376 115.200 C 326.143 115.200,326.064 115.380,326.200 115.600 C 326.443 115.993,325.776 116.150,324.200 116.068 C 322.726 115.993,321.600 116.410,321.600 117.031 C 321.600 117.370,321.420 117.536,321.200 117.400 C 320.980 117.264,320.800 117.327,320.800 117.539 C 320.800 117.751,320.434 117.829,319.987 117.712 C 319.158 117.496,317.460 118.650,317.800 119.200 C 317.900 119.361,317.260 119.452,316.379 119.403 C 315.499 119.353,314.680 119.470,314.561 119.663 C 314.442 119.855,314.200 119.924,314.023 119.814 C 313.846 119.705,313.372 120.053,312.969 120.589 C 312.467 121.258,312.092 121.442,311.772 121.177 C 311.461 120.918,311.140 120.991,310.804 121.395 C 310.528 121.728,310.043 122.000,309.727 122.000 C 309.411 122.000,309.256 122.168,309.383 122.372 C 309.509 122.577,309.430 122.858,309.207 122.996 C 308.983 123.134,308.800 123.046,308.800 122.800 C 308.800 122.542,308.589 122.485,308.300 122.666 C 308.025 122.839,307.508 122.932,307.151 122.874 C 306.778 122.812,306.411 123.114,306.288 123.583 C 306.076 124.395,305.983 124.418,302.400 124.560 C 301.850 124.582,301.400 124.816,301.400 125.080 C 301.400 125.344,301.175 125.785,300.900 126.060 C 300.625 126.335,300.400 126.412,300.400 126.231 C 300.400 126.050,300.130 126.126,299.800 126.400 C 299.316 126.801,299.199 126.792,299.194 126.349 C 299.189 125.895,299.129 125.893,298.849 126.334 C 298.663 126.628,298.351 126.853,298.155 126.834 C 297.960 126.815,297.800 127.016,297.800 127.280 C 297.800 127.547,297.268 127.759,296.600 127.757 C 295.393 127.754,294.400 128.387,294.400 129.159 C 294.400 129.388,294.144 129.477,293.831 129.357 C 293.518 129.237,292.888 129.339,292.431 129.583 C 291.814 129.913,291.600 129.910,291.600 129.570 C 291.600 129.318,291.285 129.450,290.900 129.864 C 290.515 130.278,290.335 130.442,290.500 130.228 C 291.123 129.422,290.768 129.105,290.009 129.791 C 289.575 130.185,289.319 130.669,289.441 130.867 C 289.564 131.065,289.211 131.145,288.657 131.045 C 287.203 130.781,286.015 131.175,286.269 131.837 C 286.506 132.452,284.865 133.266,284.200 132.864 C 283.325 132.335,282.733 132.438,283.227 133.032 C 283.589 133.468,283.588 133.600,283.225 133.600 C 282.965 133.600,282.881 133.808,283.038 134.062 C 283.215 134.348,283.148 134.415,282.862 134.238 C 282.608 134.081,282.175 134.097,281.900 134.274 C 281.440 134.569,280.982 134.656,278.533 134.910 C 278.057 134.960,277.673 135.090,277.681 135.200 C 277.738 136.012,277.481 136.284,276.700 136.237 C 276.205 136.207,275.575 136.457,275.299 136.791 C 274.867 137.316,274.828 137.290,275.011 136.600 C 275.186 135.945,275.139 135.963,274.751 136.700 C 274.491 137.195,274.080 137.619,273.839 137.643 C 273.597 137.666,272.860 137.733,272.200 137.791 C 270.422 137.947,270.400 137.956,270.400 138.533 C 270.400 138.827,270.175 139.091,269.900 139.122 C 269.625 139.152,268.860 139.282,268.200 139.410 C 267.540 139.538,266.775 139.663,266.500 139.688 C 266.225 139.713,266.000 140.063,266.000 140.467 C 266.000 140.870,265.775 141.218,265.500 141.239 C 265.225 141.261,264.640 141.318,264.200 141.366 C 263.760 141.413,262.995 141.486,262.500 141.526 C 261.999 141.567,261.600 141.866,261.600 142.200 C 261.600 142.530,261.240 142.822,260.800 142.850 C 260.360 142.878,259.820 142.945,259.600 143.000 C 259.380 143.055,258.795 143.135,258.300 143.178 C 257.455 143.251,257.448 143.275,258.185 143.563 C 258.999 143.881,257.865 144.382,255.851 144.595 C 255.440 144.638,254.936 144.972,254.731 145.337 C 254.527 145.702,253.907 146.000,253.354 146.000 C 252.800 146.000,251.978 146.198,251.525 146.440 C 250.925 146.761,250.777 146.760,250.977 146.437 C 251.171 146.124,250.954 146.129,250.238 146.455 C 249.681 146.709,249.320 147.071,249.436 147.258 C 249.552 147.446,249.367 147.600,249.024 147.600 C 248.681 147.600,248.397 147.825,248.394 148.100 C 248.389 148.469,248.298 148.458,248.045 148.059 C 247.636 147.413,246.237 148.005,245.862 148.983 C 245.709 149.382,245.230 149.541,244.453 149.451 C 243.518 149.342,243.184 149.518,242.823 150.309 C 242.574 150.856,242.258 151.192,242.122 151.055 C 241.985 150.919,241.641 151.000,241.358 151.235 C 241.022 151.514,240.606 151.531,240.164 151.284 C 239.173 150.729,238.057 151.133,238.276 151.968 C 238.383 152.376,238.236 152.667,237.922 152.667 C 237.627 152.667,236.879 152.794,236.259 152.949 C 235.435 153.156,235.212 153.104,235.428 152.754 C 235.621 152.443,235.553 152.382,235.235 152.578 C 234.967 152.744,234.838 152.971,234.949 153.083 C 235.398 153.531,233.715 154.776,232.878 154.615 C 232.372 154.518,231.997 154.648,231.994 154.923 C 231.990 155.258,231.901 155.270,231.694 154.961 C 231.052 154.000,229.770 154.545,229.953 155.700 C 229.979 155.865,229.460 156.000,228.800 156.000 C 228.117 156.000,227.241 156.359,226.766 156.834 C 226.308 157.292,225.363 157.727,224.666 157.799 C 223.970 157.871,223.286 157.946,223.147 157.965 C 223.007 157.984,222.798 158.366,222.680 158.814 C 222.511 159.461,222.235 159.585,221.334 159.421 C 219.980 159.173,218.697 159.510,219.018 160.029 C 219.144 160.233,218.956 160.400,218.600 160.400 C 218.244 160.400,218.037 160.537,218.140 160.703 C 218.243 160.870,217.544 160.998,216.586 160.987 C 215.120 160.970,214.810 161.105,214.625 161.843 C 214.444 162.565,214.141 162.709,212.903 162.660 C 211.624 162.609,211.381 162.735,211.271 163.506 C 211.201 164.004,210.976 164.309,210.771 164.182 C 210.567 164.056,210.399 164.098,210.399 164.276 C 210.398 164.454,209.592 164.605,208.608 164.610 C 207.624 164.616,206.590 164.852,206.310 165.134 C 205.896 165.551,205.950 165.599,206.600 165.391 C 207.311 165.163,207.329 165.194,206.760 165.667 C 206.409 165.960,205.292 166.185,204.278 166.167 C 203.264 166.148,202.533 166.291,202.652 166.484 C 203.071 167.162,202.028 167.830,200.621 167.783 C 199.840 167.757,199.200 167.885,199.200 168.068 C 199.200 168.251,199.065 168.355,198.900 168.300 C 198.735 168.245,198.542 168.380,198.472 168.600 C 198.287 169.174,197.258 169.683,196.824 169.415 C 196.621 169.290,196.353 169.353,196.227 169.556 C 196.102 169.759,195.626 169.827,195.170 169.708 C 194.523 169.539,194.369 169.656,194.470 170.240 C 194.571 170.825,194.336 171.003,193.400 171.052 C 192.740 171.086,191.975 171.134,191.700 171.157 C 191.425 171.181,191.200 171.458,191.200 171.773 C 191.200 172.392,189.803 173.011,188.749 172.860 C 188.391 172.808,187.984 173.064,187.845 173.428 C 187.637 173.970,187.481 173.999,186.986 173.588 C 186.653 173.312,186.265 173.202,186.124 173.343 C 185.982 173.484,186.113 173.600,186.413 173.600 C 187.668 173.600,186.094 174.369,184.639 174.467 C 183.535 174.541,183.026 174.780,182.893 175.286 C 182.791 175.679,182.593 176.015,182.453 176.033 C 182.314 176.052,181.390 176.097,180.400 176.133 C 179.053 176.183,178.412 176.432,177.852 177.124 C 177.440 177.633,176.855 177.953,176.552 177.837 C 176.225 177.712,176.000 177.885,176.000 178.262 C 176.000 178.786,175.893 178.809,175.390 178.392 C 175.055 178.114,174.665 178.002,174.524 178.143 C 174.382 178.284,174.513 178.400,174.813 178.400 C 175.229 178.400,175.249 178.511,174.894 178.866 C 174.638 179.122,173.657 179.305,172.714 179.272 C 171.476 179.228,171.167 179.319,171.600 179.599 C 172.000 179.858,172.033 179.990,171.700 179.994 C 171.425 179.997,171.200 180.256,171.200 180.569 C 171.200 180.968,170.813 181.102,169.900 181.018 C 169.185 180.952,168.173 181.164,167.651 181.490 C 167.039 181.872,166.810 181.907,167.006 181.590 C 167.201 181.275,167.119 181.160,166.783 181.272 C 166.315 181.428,166.221 182.178,166.364 184.624 C 166.384 184.967,166.580 185.136,166.800 185.000 C 167.020 184.864,167.200 184.913,167.200 185.110 C 167.200 185.583,168.563 185.470,168.734 184.982 C 169.050 184.081,169.765 183.598,170.456 183.818 C 170.881 183.953,171.200 183.860,171.200 183.603 C 171.200 183.356,171.361 183.252,171.557 183.374 C 171.754 183.495,172.031 183.130,172.174 182.562 C 172.375 181.761,172.552 181.628,172.962 181.969 C 173.590 182.489,176.424 182.366,176.095 181.832 C 175.971 181.630,176.166 181.578,176.530 181.718 C 176.893 181.857,177.171 181.843,177.148 181.686 C 176.998 180.681,177.271 180.325,178.039 180.526 C 179.224 180.836,180.003 180.445,180.429 179.324 C 180.718 178.564,180.941 178.439,181.477 178.739 C 181.882 178.966,182.531 178.978,183.079 178.770 C 183.650 178.553,184.000 178.568,184.000 178.810 C 184.000 179.024,184.471 179.200,185.047 179.200 C 185.947 179.200,186.067 179.061,185.902 178.200 C 185.749 177.398,185.878 177.191,186.555 177.154 C 187.020 177.128,187.580 177.066,187.800 177.015 C 188.020 176.964,188.470 176.892,188.800 176.855 C 189.238 176.806,189.270 176.705,188.916 176.480 C 188.566 176.257,188.643 176.040,189.197 175.694 C 189.719 175.369,190.045 175.350,190.221 175.634 C 190.386 175.900,190.781 175.788,191.308 175.326 C 191.764 174.927,192.006 174.825,191.845 175.100 C 191.684 175.375,191.658 175.600,191.786 175.600 C 191.915 175.600,192.174 175.195,192.362 174.700 C 192.647 173.953,193.001 173.802,194.452 173.814 C 196.306 173.828,197.480 173.238,196.656 172.706 C 196.169 172.392,197.452 172.222,199.264 172.360 C 199.849 172.405,200.461 172.224,200.625 171.959 C 200.815 171.653,200.755 171.581,200.462 171.762 C 199.838 172.147,199.871 171.401,200.500 170.899 C 201.151 170.380,203.600 170.040,203.600 170.469 C 203.600 170.651,204.153 170.800,204.828 170.800 C 205.875 170.800,206.035 170.668,205.918 169.900 C 205.843 169.405,205.547 169.049,205.261 169.110 C 204.975 169.170,204.845 169.051,204.972 168.846 C 205.230 168.428,205.946 168.464,206.697 168.933 C 207.002 169.123,207.602 168.835,208.252 168.184 C 209.077 167.359,209.608 167.160,210.655 167.282 C 211.395 167.369,212.023 167.296,212.050 167.120 C 212.078 166.944,212.123 166.635,212.150 166.433 C 212.233 165.828,212.534 165.683,214.000 165.540 C 214.770 165.465,215.682 165.064,216.026 164.649 C 216.487 164.094,217.146 163.905,218.526 163.933 C 220.134 163.965,220.400 163.860,220.400 163.185 C 220.400 162.753,220.670 162.373,221.000 162.340 C 221.330 162.307,221.825 162.262,222.100 162.240 C 222.375 162.218,222.732 162.020,222.894 161.800 C 223.087 161.537,223.190 161.544,223.194 161.818 C 223.197 162.048,223.830 162.279,224.600 162.331 C 225.764 162.409,226.000 162.290,226.000 161.627 C 226.000 161.187,226.360 160.635,226.800 160.400 C 227.318 160.123,227.600 160.114,227.600 160.373 C 227.600 160.594,227.864 160.673,228.187 160.550 C 228.510 160.426,228.759 160.206,228.740 160.062 C 228.624 159.186,228.959 158.924,230.257 158.875 C 231.908 158.813,232.020 158.747,232.165 157.758 C 232.272 157.026,236.000 156.572,236.000 157.290 C 236.000 157.460,236.381 157.600,236.847 157.600 C 237.534 157.600,237.657 157.412,237.502 156.600 C 237.397 156.050,237.466 155.578,237.655 155.550 C 237.845 155.523,238.165 155.478,238.367 155.450 C 238.568 155.423,238.868 155.265,239.033 155.100 C 239.198 154.935,239.708 154.797,240.167 154.794 C 240.851 154.789,240.893 154.719,240.400 154.400 C 239.854 154.047,240.659 153.845,241.837 154.039 C 241.968 154.060,242.553 153.633,243.137 153.088 C 243.797 152.473,244.693 152.090,245.501 152.076 C 247.231 152.046,248.466 151.630,248.182 151.171 C 248.056 150.967,248.413 150.800,248.976 150.800 C 249.539 150.800,250.000 150.645,250.000 150.455 C 250.000 150.266,250.457 150.198,251.017 150.305 C 251.576 150.412,252.004 150.342,251.969 150.150 C 251.783 149.129,252.040 148.378,252.483 148.651 C 253.317 149.167,254.960 149.185,255.318 148.682 C 255.584 148.308,255.707 148.313,255.864 148.700 C 256.265 149.688,257.600 149.270,257.600 148.157 C 257.600 147.415,257.766 147.178,258.174 147.335 C 258.490 147.456,258.808 147.375,258.881 147.156 C 258.955 146.936,259.321 146.711,259.696 146.656 C 260.070 146.601,260.517 146.402,260.688 146.214 C 260.861 146.024,260.732 146.024,260.400 146.213 C 259.871 146.513,259.869 146.468,260.385 145.833 C 260.707 145.437,261.025 145.276,261.092 145.475 C 261.158 145.675,261.851 145.763,262.631 145.672 C 263.594 145.560,263.985 145.338,263.849 144.983 C 263.599 144.333,264.611 143.436,265.190 143.794 C 265.423 143.938,266.286 143.646,267.107 143.146 C 268.051 142.570,268.453 142.456,268.200 142.836 C 267.980 143.167,268.091 143.124,268.447 142.740 C 268.803 142.356,269.433 142.035,269.847 142.026 C 271.424 141.993,271.958 141.855,271.758 141.533 C 271.492 141.101,273.573 140.304,274.269 140.571 C 274.561 140.683,274.800 140.590,274.800 140.364 C 274.800 140.138,274.966 140.056,275.170 140.181 C 275.373 140.307,275.622 140.093,275.723 139.705 C 275.863 139.168,275.918 139.215,275.954 139.900 C 276.025 141.294,277.600 141.135,277.600 139.733 C 277.600 139.147,277.718 138.785,277.863 138.930 C 278.008 139.075,278.368 138.993,278.663 138.748 C 279.061 138.418,279.200 138.425,279.200 138.775 C 279.200 139.035,279.383 139.134,279.607 138.996 C 279.830 138.858,279.922 138.598,279.811 138.418 C 279.423 137.789,280.662 137.228,282.125 137.370 C 283.152 137.469,283.600 137.353,283.600 136.985 C 283.600 136.091,284.820 135.119,285.370 135.575 C 285.703 135.852,286.127 135.787,286.727 135.366 C 287.512 134.816,287.600 134.817,287.600 135.377 C 287.600 136.538,289.135 136.100,289.273 134.900 C 289.382 133.959,289.559 133.819,290.500 133.929 C 291.118 134.001,291.600 133.862,291.600 133.612 C 291.600 132.727,292.990 131.623,293.610 132.015 C 294.480 132.565,294.625 132.502,295.147 131.356 C 295.552 130.468,295.815 130.343,296.911 130.513 C 297.916 130.670,298.442 130.487,299.300 129.682 C 300.002 129.024,300.400 128.850,300.400 129.202 C 300.400 129.578,300.571 129.519,300.939 129.016 C 301.313 128.504,301.565 128.420,301.763 128.740 C 302.146 129.361,303.467 128.650,303.783 127.654 C 303.963 127.088,304.322 126.942,305.270 127.053 C 305.957 127.133,306.763 126.997,307.060 126.750 C 307.476 126.405,307.600 126.452,307.600 126.951 C 307.600 127.333,307.929 127.600,308.400 127.600 C 309.183 127.600,309.573 126.275,308.900 125.899 C 308.735 125.807,308.825 125.786,309.100 125.853 C 309.375 125.920,309.600 125.812,309.600 125.614 C 309.600 125.415,310.065 125.337,310.634 125.440 C 311.426 125.584,311.717 125.438,311.880 124.814 C 312.066 124.104,312.954 123.764,314.116 123.958 C 314.732 124.061,316.019 123.154,315.788 122.780 C 315.658 122.571,316.076 122.400,316.715 122.400 C 317.804 122.400,320.400 121.376,320.400 120.947 C 320.400 120.840,320.192 120.881,319.938 121.038 C 319.668 121.205,319.584 121.149,319.737 120.902 C 319.881 120.669,320.549 120.518,321.222 120.564 C 321.895 120.611,322.538 120.500,322.651 120.318 C 322.763 120.136,323.023 120.091,323.228 120.217 C 323.566 120.426,323.772 119.871,323.644 119.090 C 323.616 118.920,324.236 118.851,325.021 118.938 C 325.914 119.036,326.663 118.879,327.024 118.519 C 327.525 118.018,327.600 118.024,327.600 118.571 C 327.600 118.945,327.944 119.200,328.447 119.200 C 329.134 119.200,329.257 119.012,329.102 118.200 C 328.935 117.327,329.052 117.200,330.026 117.200 C 330.727 117.200,331.422 116.843,331.896 116.242 C 332.396 115.606,332.843 115.389,333.225 115.596 C 334.011 116.023,335.600 115.365,335.600 114.613 C 335.600 113.941,335.556 113.957,337.694 113.855 C 338.584 113.812,339.473 113.472,339.894 113.014 C 340.576 112.270,340.573 112.263,339.800 112.803 C 339.110 113.285,339.070 113.283,339.508 112.792 C 339.788 112.479,340.598 112.192,341.308 112.155 C 343.702 112.028,344.206 111.939,343.698 111.734 C 342.881 111.405,343.558 110.800,344.744 110.800 C 345.347 110.800,346.056 110.584,346.320 110.320 C 346.693 109.947,346.801 109.969,346.806 110.420 C 346.811 110.915,346.865 110.917,347.169 110.436 C 347.365 110.126,347.437 109.642,347.329 109.360 C 347.184 108.982,347.616 108.867,348.966 108.923 C 349.975 108.965,350.800 108.871,350.800 108.713 C 350.800 108.554,351.062 108.526,351.383 108.649 C 351.770 108.797,352.052 108.532,352.221 107.860 C 352.441 106.982,352.602 106.897,353.437 107.214 C 354.129 107.477,354.402 107.442,354.406 107.090 C 354.410 106.743,354.512 106.758,354.756 107.143 C 354.996 107.521,355.183 107.551,355.374 107.243 C 355.524 106.999,355.519 106.800,355.362 106.800 C 355.205 106.800,355.371 106.474,355.731 106.077 C 356.380 105.359,357.351 105.302,359.700 105.841 C 360.684 106.067,360.800 105.983,360.800 105.047 C 360.800 104.300,361.009 104.000,361.530 104.000 C 361.932 104.000,362.683 103.550,363.200 103.000 C 363.717 102.450,364.603 101.987,365.170 101.972 C 366.679 101.931,367.859 101.407,367.267 101.041 C 367.003 100.878,366.883 100.590,367.000 100.400 C 367.296 99.921,366.730 99.637,365.043 99.421 C 364.084 99.299,363.598 99.398,363.594 99.718 C 363.590 100.020,363.478 100.051,363.294 99.800 C 363.132 99.580,362.596 99.386,362.102 99.368 C 361.608 99.351,361.286 99.420,361.388 99.521 M64.623 285.289 C 64.168 285.939,63.562 286.193,62.371 286.232 C 61.355 286.266,60.489 286.564,60.071 287.022 C 59.432 287.721,59.438 287.729,60.200 287.178 C 60.918 286.660,60.949 286.665,60.508 287.232 C 60.171 287.663,59.452 287.840,58.237 287.789 C 56.672 287.724,56.429 287.829,56.221 288.658 C 56.069 289.265,55.693 289.600,55.164 289.600 C 54.262 289.600,53.200 290.473,53.200 291.214 C 53.200 291.510,52.939 291.575,52.500 291.389 C 50.902 290.711,47.693 291.553,48.266 292.500 C 48.455 292.813,47.873 292.905,45.721 292.904 C 44.722 292.903,44.416 293.089,44.321 293.752 C 44.226 294.416,43.961 294.575,43.100 294.485 C 42.495 294.422,42.000 294.527,42.000 294.718 C 42.000 294.910,41.730 295.067,41.400 295.067 C 41.070 295.067,40.800 294.917,40.800 294.733 C 40.800 294.550,40.440 294.400,40.000 294.400 C 39.427 294.400,39.200 294.667,39.200 295.338 C 39.200 296.113,39.009 296.263,38.100 296.201 C 36.799 296.111,35.966 296.647,36.251 297.389 C 36.528 298.110,35.686 298.570,35.053 298.044 C 34.688 297.741,34.389 297.760,34.012 298.110 C 33.586 298.504,33.548 298.483,33.818 298.000 C 34.107 297.483,34.060 297.476,33.477 297.949 C 32.071 299.089,32.615 300.305,34.600 300.463 C 35.634 300.545,36.403 300.434,36.406 300.203 C 36.410 299.935,36.511 299.934,36.706 300.200 C 36.868 300.420,37.432 300.617,37.960 300.638 C 38.825 300.673,38.852 300.627,38.232 300.174 C 37.413 299.575,38.481 299.055,40.600 299.020 C 41.553 299.004,41.795 298.828,41.775 298.163 C 41.753 297.427,41.958 297.336,43.475 297.410 C 44.424 297.456,45.200 297.368,45.200 297.215 C 45.200 297.062,45.605 296.951,46.100 296.968 C 46.720 296.990,46.983 296.784,46.945 296.304 C 46.915 295.922,47.035 295.698,47.213 295.808 C 47.390 295.918,47.809 295.734,48.142 295.401 C 48.518 295.025,48.844 294.947,48.998 295.197 C 49.423 295.885,50.464 295.640,50.684 294.800 C 50.905 293.956,51.135 293.871,52.900 293.988 C 53.831 294.049,54.000 293.904,54.000 293.043 C 54.000 292.281,54.158 292.086,54.630 292.267 C 55.417 292.569,58.449 291.603,58.163 291.140 C 57.963 290.817,58.827 290.631,59.895 290.769 C 60.687 290.871,62.000 290.023,62.000 289.410 C 62.000 289.037,62.371 288.884,63.100 288.955 C 64.468 289.089,65.600 288.559,65.600 287.786 C 65.600 287.464,65.960 287.200,66.400 287.200 C 67.048 287.200,67.200 286.933,67.200 285.800 C 67.200 284.095,65.671 283.792,64.623 285.289 M364.400 315.356 C 364.400 316.377,361.818 317.129,361.438 316.219 C 361.274 315.827,361.045 317.033,361.155 317.708 C 361.183 317.878,360.721 317.929,360.128 317.821 C 359.536 317.714,358.817 317.820,358.530 318.058 C 358.244 318.295,357.713 318.375,357.349 318.236 C 356.929 318.075,356.478 318.281,356.114 318.802 C 355.798 319.252,355.328 319.581,355.070 319.532 C 354.047 319.338,352.800 320.077,352.800 320.876 C 352.800 321.561,352.700 321.615,352.200 321.200 C 351.870 320.926,351.600 320.859,351.600 321.051 C 351.600 321.243,351.060 321.400,350.400 321.400 C 349.740 321.400,349.200 321.265,349.200 321.100 C 349.200 320.935,348.840 320.800,348.400 320.800 C 347.813 320.800,347.600 321.067,347.600 321.800 C 347.600 322.527,347.386 322.800,346.816 322.800 C 346.384 322.800,345.658 323.201,345.201 323.691 C 344.680 324.250,343.891 324.586,343.085 324.591 C 342.378 324.596,341.740 324.780,341.666 325.000 C 341.361 325.910,340.637 326.403,339.649 326.374 C 338.201 326.331,337.575 326.515,336.303 327.360 C 335.700 327.760,334.972 327.998,334.686 327.888 C 334.400 327.779,333.825 327.939,333.407 328.244 C 332.989 328.550,332.784 328.800,332.952 328.800 C 333.120 328.800,332.958 329.099,332.592 329.465 C 332.227 329.831,331.809 329.966,331.664 329.765 C 330.937 328.759,327.485 329.086,327.687 330.142 C 327.794 330.702,327.773 331.131,327.641 331.096 C 326.972 330.916,324.779 331.642,324.985 331.975 C 325.301 332.486,323.817 333.258,323.069 332.971 C 322.746 332.847,322.350 332.957,322.190 333.215 C 321.975 333.564,321.812 333.546,321.556 333.143 C 321.305 332.746,321.211 332.843,321.206 333.500 C 321.203 333.995,320.975 334.425,320.700 334.455 C 320.425 334.486,319.660 334.554,319.000 334.608 C 318.340 334.661,317.575 334.727,317.300 334.753 C 317.025 334.779,316.800 334.991,316.800 335.224 C 316.800 335.457,317.008 335.519,317.262 335.362 C 317.550 335.184,317.615 335.252,317.434 335.545 C 317.275 335.802,316.977 335.909,316.772 335.783 C 316.568 335.656,316.400 335.720,316.400 335.924 C 316.400 336.129,316.085 336.295,315.700 336.293 C 313.437 336.284,312.629 336.431,313.142 336.756 C 313.548 337.013,313.361 337.261,312.394 337.743 C 311.684 338.097,310.937 338.285,310.734 338.159 C 310.531 338.034,310.103 338.149,309.782 338.415 C 309.313 338.804,309.200 338.772,309.200 338.249 C 309.200 337.855,308.868 337.600,308.353 337.600 C 307.658 337.600,307.542 337.785,307.705 338.637 C 307.880 339.553,307.791 339.653,306.952 339.493 C 306.428 339.393,306.000 339.466,306.000 339.655 C 306.000 339.845,305.865 339.979,305.700 339.953 C 305.025 339.846,304.403 340.018,304.447 340.300 C 304.612 341.342,304.358 341.564,303.414 341.205 C 302.786 340.967,302.341 340.973,302.187 341.222 C 302.054 341.437,301.773 341.507,301.562 341.377 C 301.352 341.247,301.213 341.289,301.254 341.470 C 301.441 342.312,300.700 343.021,299.691 342.966 C 299.091 342.934,298.375 343.085,298.100 343.302 C 297.762 343.570,297.600 343.552,297.600 343.249 C 297.600 343.002,297.240 342.800,296.800 342.800 C 296.267 342.800,296.000 343.067,296.000 343.600 C 296.000 344.106,295.733 344.400,295.275 344.400 C 294.877 344.400,294.164 344.760,293.692 345.200 C 293.220 345.640,292.365 346.000,291.793 346.000 C 291.067 346.000,290.844 346.151,291.053 346.500 C 291.228 346.791,291.039 346.750,290.600 346.400 C 290.161 346.050,289.972 346.009,290.147 346.300 C 290.341 346.624,290.192 346.811,289.724 346.832 C 289.304 346.850,289.210 346.948,289.500 347.065 C 290.643 347.526,289.874 348.011,288.200 347.885 C 286.885 347.786,286.400 347.896,286.400 348.292 C 286.400 348.591,286.175 348.806,285.900 348.770 C 284.682 348.612,284.204 348.858,285.000 349.234 C 285.685 349.557,285.642 349.590,284.700 349.461 C 284.095 349.378,283.600 349.460,283.600 349.643 C 283.600 349.826,283.325 349.869,282.988 349.740 C 282.632 349.604,282.060 349.870,281.620 350.376 C 280.840 351.276,277.600 351.929,277.600 351.186 C 277.600 350.974,277.220 350.800,276.755 350.800 C 276.053 350.800,275.938 350.994,276.076 351.938 C 276.229 352.978,276.147 353.066,275.140 352.948 C 274.095 352.827,272.800 353.635,272.800 354.410 C 272.800 354.603,272.256 354.693,271.591 354.609 C 270.653 354.490,270.238 354.675,269.743 355.431 C 269.283 356.133,268.789 356.381,267.976 356.319 C 267.328 356.270,266.456 356.567,265.930 357.017 C 265.199 357.641,265.125 357.656,265.563 357.091 C 266.044 356.471,266.030 356.414,265.457 356.634 C 265.095 356.772,264.800 357.046,264.800 357.243 C 264.800 357.439,264.480 357.600,264.089 357.600 C 263.698 357.600,263.002 357.864,262.542 358.186 C 262.081 358.508,261.563 358.643,261.389 358.486 C 261.215 358.329,261.180 358.500,261.311 358.867 C 261.506 359.412,261.317 359.514,260.275 359.423 C 259.574 359.362,258.685 359.474,258.300 359.670 C 257.854 359.898,257.600 359.878,257.600 359.614 C 257.600 359.386,257.227 359.200,256.771 359.200 C 256.103 359.200,255.968 359.413,256.071 360.300 C 256.187 361.287,256.078 361.397,255.008 361.374 C 254.295 361.359,253.471 361.693,252.958 362.205 C 252.336 362.828,251.705 363.031,250.651 362.948 C 249.370 362.847,249.200 362.942,249.200 363.755 C 249.200 364.627,249.075 364.669,246.800 364.550 C 244.528 364.430,244.400 364.473,244.400 365.341 C 244.400 366.153,244.218 366.251,242.809 366.198 C 241.528 366.150,241.303 366.242,241.658 366.669 C 241.990 367.070,241.951 367.200,241.498 367.200 C 241.168 367.200,240.674 367.470,240.401 367.799 C 240.124 368.133,239.495 368.324,238.981 368.231 C 238.273 368.102,238.089 368.226,238.193 368.761 C 238.304 369.341,238.049 369.449,236.681 369.398 C 235.474 369.353,234.818 369.562,234.218 370.184 C 233.768 370.650,233.130 371.014,232.800 370.992 C 232.470 370.970,231.795 371.093,231.300 371.266 C 230.740 371.462,230.400 371.422,230.400 371.162 C 230.400 370.931,230.131 371.012,229.801 371.342 C 229.472 371.671,229.308 372.215,229.436 372.550 C 229.618 373.025,229.440 373.118,228.626 372.970 C 228.052 372.866,227.226 372.972,226.791 373.205 C 226.252 373.493,226.000 373.496,226.000 373.214 C 226.000 372.986,225.640 372.800,225.200 372.800 C 224.622 372.800,224.400 373.067,224.400 373.763 C 224.400 374.529,224.237 374.682,223.598 374.515 C 223.157 374.400,222.527 374.529,222.198 374.802 C 221.717 375.201,221.592 375.190,221.560 374.749 C 221.538 374.447,221.391 374.650,221.233 375.200 C 220.980 376.079,220.750 376.188,219.327 376.099 C 217.841 376.006,217.718 376.074,217.813 376.942 C 217.896 377.691,217.739 377.873,217.059 377.818 C 216.586 377.780,215.885 377.902,215.500 378.089 C 215.051 378.307,214.800 378.270,214.800 377.986 C 214.800 377.701,214.591 377.732,214.214 378.071 C 212.755 379.387,212.366 379.626,212.029 379.418 C 211.506 379.095,209.600 379.897,209.600 380.439 C 209.600 380.758,209.813 380.738,210.300 380.371 C 210.961 379.873,210.962 379.885,210.320 380.587 C 209.864 381.087,209.146 381.313,208.138 381.275 C 207.312 381.244,206.496 381.439,206.324 381.709 C 206.106 382.052,206.010 381.989,206.006 381.500 C 205.996 380.303,204.473 380.633,204.327 381.864 C 204.208 382.860,203.761 383.147,202.100 383.290 C 201.825 383.314,201.600 383.573,201.600 383.867 C 201.600 384.223,201.065 384.400,199.990 384.400 C 198.689 384.400,198.315 384.572,198.038 385.300 C 197.753 386.051,197.419 386.190,196.020 386.140 C 194.912 386.100,194.272 386.269,194.130 386.638 C 194.012 386.944,193.755 387.096,193.558 386.974 C 193.361 386.852,193.200 387.013,193.200 387.331 C 193.200 387.668,192.699 387.983,192.000 388.085 C 191.340 388.182,190.800 388.081,190.800 387.861 C 190.800 387.640,190.463 387.807,190.051 388.230 C 189.639 388.654,189.399 389.166,189.517 389.368 C 189.635 389.570,189.432 389.621,189.066 389.481 C 188.670 389.329,188.398 389.423,188.394 389.713 C 188.390 390.023,188.243 389.982,187.991 389.600 C 187.622 389.042,186.042 390.349,186.009 391.239 C 186.004 391.370,185.130 391.418,184.067 391.344 C 182.426 391.231,182.007 391.357,181.289 392.184 C 180.591 392.986,180.194 393.116,179.021 392.926 C 177.717 392.714,177.600 392.776,177.600 393.676 C 177.600 394.622,177.514 394.653,175.157 394.545 C 172.772 394.437,172.718 394.457,172.896 395.390 C 173.057 396.235,172.950 396.330,171.978 396.207 C 170.735 396.050,169.017 397.353,169.450 398.124 C 169.653 398.486,169.597 398.489,169.215 398.136 C 168.472 397.451,166.400 398.263,166.400 399.239 C 166.400 400.171,171.794 400.417,172.100 399.500 C 172.192 399.225,172.702 398.982,173.234 398.960 C 175.389 398.872,175.554 398.802,175.407 398.039 C 175.313 397.547,175.533 397.206,176.030 397.076 C 176.454 396.965,176.800 397.003,176.800 397.160 C 176.800 397.807,179.306 397.226,179.847 396.454 C 180.196 395.955,180.669 395.728,181.051 395.875 C 181.397 396.008,181.843 395.865,182.040 395.558 C 182.345 395.086,182.460 395.092,182.794 395.600 C 183.148 396.140,183.372 395.892,183.247 395.100 C 183.221 394.935,183.380 394.800,183.600 394.800 C 183.820 394.800,184.000 394.575,184.000 394.300 C 184.000 393.989,184.566 393.800,185.500 393.800 C 186.730 393.800,187.022 393.645,187.122 392.941 C 187.231 392.182,187.487 392.087,189.322 392.122 C 190.814 392.151,191.369 392.018,191.290 391.651 C 191.230 391.370,191.352 391.247,191.562 391.377 C 191.773 391.507,192.058 391.430,192.196 391.207 C 192.334 390.983,192.910 390.800,193.477 390.800 C 194.043 390.800,194.826 390.431,195.217 389.980 C 195.841 389.261,197.201 388.750,198.662 388.687 C 198.916 388.676,199.032 388.427,198.919 388.133 C 198.799 387.820,198.990 387.600,199.381 387.600 C 199.747 387.600,199.964 387.465,199.862 387.300 C 199.760 387.135,200.477 387.015,201.455 387.034 C 202.658 387.057,203.344 386.871,203.574 386.460 C 203.762 386.126,204.479 385.809,205.169 385.756 C 205.873 385.703,206.725 385.289,207.111 384.813 C 207.490 384.346,208.258 383.916,208.817 383.857 C 209.376 383.798,210.086 383.594,210.393 383.404 C 210.744 383.187,211.011 383.234,211.110 383.529 C 211.378 384.334,211.963 384.045,211.798 383.189 C 211.712 382.743,211.812 382.484,212.021 382.613 C 212.229 382.742,212.400 382.685,212.400 382.487 C 212.400 382.289,212.985 382.143,213.700 382.164 C 214.659 382.190,215.097 381.979,215.370 381.357 C 215.665 380.686,216.095 380.514,217.476 380.514 C 218.524 380.514,219.498 380.254,219.937 379.857 C 220.336 379.496,220.863 379.200,221.108 379.200 C 221.353 379.200,221.681 378.992,221.838 378.738 C 222.027 378.433,221.946 378.386,221.600 378.600 C 221.246 378.819,221.173 378.768,221.374 378.442 C 221.594 378.086,221.811 378.077,222.209 378.407 C 222.619 378.748,222.952 378.648,223.610 377.990 C 224.127 377.473,224.780 377.206,225.237 377.325 C 225.656 377.435,226.102 377.359,226.227 377.156 C 226.353 376.953,226.651 376.908,226.889 377.055 C 227.128 377.203,227.218 377.152,227.088 376.943 C 226.541 376.057,227.556 375.494,229.617 375.541 C 230.775 375.567,231.610 375.477,231.474 375.341 C 230.975 374.841,233.025 373.677,234.058 373.875 C 234.858 374.028,235.137 373.885,235.307 373.236 C 235.469 372.615,235.844 372.400,236.763 372.400 C 237.617 372.400,238.000 372.207,238.000 371.776 C 238.000 371.402,238.187 371.268,238.468 371.442 C 238.776 371.632,238.854 371.519,238.698 371.111 C 238.501 370.598,238.782 370.508,240.320 370.587 C 242.329 370.690,243.980 370.381,243.992 369.900 C 243.997 369.735,244.000 369.412,244.000 369.182 C 244.000 368.953,244.225 368.794,244.500 368.830 C 246.284 369.062,247.200 368.764,247.200 367.953 C 247.200 367.304,247.386 367.155,248.000 367.316 C 248.440 367.431,248.800 367.340,248.800 367.114 C 248.800 366.860,249.017 366.882,249.368 367.173 C 249.816 367.545,250.024 367.493,250.356 366.922 C 250.680 366.364,250.781 366.336,250.800 366.800 C 250.819 367.270,250.913 367.247,251.237 366.692 C 251.464 366.302,251.818 366.088,252.025 366.215 C 252.231 366.343,252.400 366.257,252.400 366.024 C 252.400 365.791,252.863 365.600,253.429 365.600 C 254.435 365.600,255.600 364.800,255.600 364.109 C 255.600 363.917,256.205 363.831,256.944 363.918 C 258.042 364.046,258.327 363.921,258.506 363.237 C 258.683 362.562,259.038 362.400,260.339 362.400 C 261.227 362.400,262.064 362.220,262.200 362.000 C 262.336 361.780,262.627 361.600,262.847 361.600 C 263.067 361.600,263.119 361.808,262.962 362.062 C 262.789 362.341,262.852 362.415,263.121 362.249 C 263.365 362.098,263.475 361.740,263.365 361.454 C 263.255 361.168,263.398 360.913,263.683 360.888 C 266.526 360.641,266.947 360.495,267.261 359.647 C 267.444 359.153,267.786 358.868,268.021 359.013 C 268.537 359.332,270.866 358.431,270.607 358.012 C 270.507 357.850,270.863 357.517,271.398 357.274 C 271.934 357.030,272.460 356.974,272.569 357.149 C 272.976 357.809,274.604 357.343,274.470 356.605 C 274.378 356.098,274.521 355.961,274.965 356.131 C 275.338 356.274,275.552 356.175,275.495 355.886 C 275.387 355.331,277.042 355.216,278.100 355.705 C 278.755 356.007,279.034 355.482,278.847 354.300 C 278.821 354.135,279.655 353.979,280.700 353.954 C 283.686 353.881,283.800 353.846,283.802 353.000 C 283.803 352.367,284.071 352.200,285.083 352.200 C 285.811 352.200,286.586 351.909,286.881 351.525 C 287.168 351.152,288.115 350.786,289.000 350.705 C 290.438 350.575,290.598 350.452,290.578 349.491 C 290.560 348.614,290.722 348.436,291.478 348.498 C 291.985 348.540,292.400 348.715,292.400 348.887 C 292.400 349.506,293.603 349.184,294.068 348.440 C 294.329 348.022,294.762 347.764,295.031 347.867 C 295.299 347.970,295.630 347.875,295.766 347.655 C 295.902 347.435,296.454 347.335,296.994 347.433 C 297.711 347.563,298.146 347.348,298.615 346.634 C 299.018 346.018,299.541 345.712,300.027 345.805 C 300.452 345.887,300.800 345.808,300.800 345.630 C 300.800 345.451,301.338 345.368,301.996 345.444 C 302.926 345.552,303.342 345.355,303.864 344.558 C 304.352 343.814,304.792 343.582,305.468 343.711 C 306.046 343.821,306.400 343.697,306.400 343.384 C 306.400 343.106,306.940 342.690,307.600 342.460 C 308.260 342.230,308.800 342.144,308.800 342.270 C 308.800 342.395,309.070 342.274,309.400 342.000 C 309.884 341.599,310.006 341.609,310.032 342.051 C 310.049 342.353,310.238 342.122,310.452 341.538 C 310.759 340.700,311.066 340.500,311.903 340.592 C 313.073 340.720,314.800 340.076,314.800 339.512 C 314.800 339.315,314.968 339.256,315.172 339.383 C 315.377 339.509,315.659 339.429,315.798 339.203 C 315.937 338.978,316.445 338.856,316.926 338.933 C 317.747 339.065,319.361 337.894,318.940 337.473 C 318.833 337.367,319.467 337.319,320.348 337.367 C 321.702 337.441,321.984 337.318,322.171 336.575 C 322.377 335.751,324.000 334.888,324.000 335.602 C 324.000 335.782,324.315 335.869,324.700 335.795 C 325.085 335.722,325.619 335.647,325.887 335.631 C 326.175 335.613,326.270 335.326,326.118 334.931 C 325.929 334.439,326.026 334.324,326.482 334.499 C 326.823 334.630,327.259 334.587,327.451 334.403 C 327.643 334.220,328.250 334.009,328.800 333.935 C 329.350 333.861,330.070 333.517,330.400 333.172 C 331.103 332.436,334.558 331.403,335.131 331.757 C 335.360 331.899,335.441 331.677,335.324 331.229 C 335.150 330.566,335.291 330.484,336.326 330.647 C 336.988 330.752,337.648 330.646,337.793 330.412 C 337.937 330.178,338.223 330.091,338.428 330.217 C 338.745 330.414,338.942 329.962,338.877 329.188 C 338.867 329.072,339.341 328.998,339.929 329.026 C 341.090 329.079,342.459 328.420,342.168 327.948 C 341.886 327.491,342.532 327.241,344.234 327.149 C 345.862 327.060,346.932 326.538,346.597 325.995 C 346.490 325.821,346.942 325.717,347.601 325.763 C 348.260 325.808,348.800 325.681,348.800 325.480 C 348.800 325.279,349.087 325.224,349.437 325.359 C 349.862 325.522,350.144 325.336,350.284 324.802 C 350.508 323.943,350.512 323.942,353.132 323.856 C 354.358 323.816,355.035 323.566,355.449 323.000 C 356.037 322.197,356.158 322.142,357.563 322.050 C 358.127 322.013,358.282 321.766,358.158 321.100 C 358.066 320.605,358.091 320.404,358.214 320.654 C 358.361 320.955,358.899 321.003,359.818 320.796 C 360.578 320.625,361.200 320.595,361.200 320.731 C 361.200 320.867,361.480 320.578,361.823 320.088 C 362.166 319.599,362.335 319.019,362.200 318.799 C 361.879 318.280,362.643 318.288,363.626 318.814 C 364.163 319.102,364.645 319.097,365.200 318.800 C 365.773 318.493,366.000 318.496,366.000 318.810 C 366.000 319.050,366.183 319.134,366.407 318.996 C 366.630 318.858,366.705 318.569,366.572 318.355 C 366.440 318.140,366.516 317.742,366.742 317.470 C 367.464 316.599,367.589 314.881,366.947 314.635 C 366.560 314.486,366.454 314.579,366.638 314.905 C 366.856 315.291,366.799 315.290,366.379 314.900 C 365.459 314.046,364.400 314.290,364.400 315.356 M131.600 334.962 C 131.600 335.642,130.629 336.090,128.844 336.233 C 128.098 336.292,127.198 336.659,126.844 337.049 C 126.238 337.714,126.248 337.722,127.000 337.178 C 127.738 336.645,127.757 336.654,127.255 337.296 C 126.955 337.678,126.546 337.890,126.347 337.767 C 125.872 337.474,123.082 338.389,122.715 338.958 C 122.558 339.201,122.243 339.423,122.015 339.450 C 121.787 339.478,121.428 339.523,121.218 339.550 C 121.008 339.578,120.378 340.058,119.818 340.618 C 119.258 341.178,118.800 341.438,118.800 341.195 C 118.800 340.952,118.601 340.876,118.357 341.026 C 118.114 341.177,117.169 341.322,116.258 341.350 C 114.884 341.391,114.601 341.537,114.600 342.200 C 114.600 342.776,114.320 343.011,113.600 343.040 C 110.983 343.143,110.608 343.218,111.108 343.534 C 111.478 343.770,111.353 343.997,110.646 344.376 C 110.113 344.661,109.471 344.768,109.221 344.613 C 108.970 344.458,108.503 344.549,108.182 344.815 C 107.772 345.155,107.600 345.165,107.600 344.849 C 107.600 344.602,107.240 344.400,106.800 344.400 C 106.017 344.400,105.627 345.725,106.300 346.101 C 106.465 346.193,106.362 346.209,106.071 346.136 C 105.780 346.063,105.195 346.189,104.771 346.416 C 104.196 346.723,103.997 346.697,103.988 346.314 C 103.981 346.031,103.768 346.160,103.514 346.600 C 102.770 347.888,102.019 348.493,101.438 348.270 C 101.141 348.156,100.669 348.273,100.390 348.531 C 99.992 348.899,99.955 348.870,100.218 348.400 C 100.506 347.885,100.458 347.877,99.886 348.342 C 99.211 348.889,99.159 350.119,99.787 350.690 C 99.975 350.860,99.999 350.775,99.841 350.500 C 99.682 350.225,99.743 350.000,99.976 350.000 C 100.209 350.000,100.400 350.174,100.400 350.387 C 100.400 350.599,101.300 350.740,102.400 350.699 C 103.769 350.649,104.400 350.456,104.400 350.089 C 104.400 349.794,104.581 349.665,104.803 349.802 C 105.024 349.939,105.312 349.773,105.443 349.433 C 105.602 349.017,106.089 348.856,106.940 348.939 C 108.402 349.082,109.247 348.587,108.933 347.771 C 108.742 347.271,110.320 347.011,112.236 347.227 C 112.366 347.241,112.740 346.926,113.066 346.527 C 113.422 346.091,113.556 346.040,113.400 346.400 C 113.227 346.800,113.330 346.769,113.710 346.306 C 114.023 345.925,114.396 345.730,114.540 345.873 C 114.683 346.016,114.800 345.893,114.800 345.600 C 114.800 345.307,114.905 345.172,115.034 345.301 C 115.163 345.429,115.810 345.346,116.473 345.115 C 117.359 344.806,117.535 344.605,117.139 344.354 C 116.546 343.978,117.277 343.854,119.300 343.988 C 120.170 344.045,120.400 343.887,120.400 343.230 C 120.400 342.416,120.908 342.214,122.533 342.385 C 122.937 342.427,123.535 342.133,123.863 341.731 C 124.191 341.329,124.345 341.225,124.206 341.500 C 123.885 342.134,125.047 342.170,125.438 341.538 C 125.615 341.252,125.548 341.185,125.262 341.362 C 125.008 341.519,124.800 341.476,124.800 341.266 C 124.800 340.756,125.507 340.560,127.251 340.588 C 128.215 340.604,128.641 340.452,128.520 340.137 C 128.420 339.875,128.712 339.461,129.169 339.217 C 129.626 338.972,130.000 338.875,130.000 339.000 C 130.000 339.125,130.360 339.035,130.800 338.800 C 131.342 338.510,131.600 338.505,131.600 338.786 C 131.600 339.014,131.780 339.200,132.000 339.200 C 132.220 339.200,132.379 339.065,132.353 338.900 C 132.200 337.934,132.490 337.270,133.139 337.100 C 134.317 336.792,133.836 334.594,132.567 334.489 C 131.972 334.440,131.600 334.622,131.600 334.962 " stroke="none" fill="#fcfcfc" fill-rule="evenodd"></path><path id="path1" d="" stroke="none" fill="#100fcfc" fill-rule="evenodd"></path><path id="path2" d="" stroke="none" fill="#100fcfc" fill-rule="evenodd"></path><path id="path3" d="" stroke="none" fill="#100fcfc" fill-rule="evenodd"></path><path id="path4" d="" stroke="none" fill="#100fcfc" fill-rule="evenodd"></path></g></svg>